<?xml version="1.0" encoding="UTF-8"?>
<svg id="Circle" xmlns="http://www.w3.org/2000/svg" viewBox="0 0 72 72">
  <defs>
    <style>
      .cls-1 {
        fill: #231f20;
      }
    </style>
  </defs>
  <path class="cls-1" d="m52.3,19.61c-2.44-2.04-3.91-1.35-4.39-1.13-2.01.94-3.25,3.76-3.25,4.98,0,.78-.45,1.48-1.15,1.81-.7.33-1.53.22-2.13-.27-2.12-1.76-4.7-3.99-6.25-5.32l-2.85,2.62c2.17,1.19,4.84,3.21,5.6,6.15.65,2.5-.19,5.03-2.47,7.54-2.78,3.04-5.36,3.29-7.03,2.95-3.17-.63-5.41-3.74-6.7-6.13l-3.49,3.53,17.98,16.67,16.49-17.18c-1.44-1.46-3.67-3.72-5.02-5.07-.57-.57-.74-1.43-.43-2.18s1.04-1.23,1.85-1.23c2.59,0,4.84-1.2,5.47-2.92.71-1.96-1.09-3.86-2.23-4.81Z"/>
  <path class="cls-1" d="m36,0C16.12,0,0,16.12,0,36s16.12,36,36,36,36-16.12,36-36S55.88,0,36,0Zm22.28,25.79c-.8,2.2-2.7,3.92-5.14,4.83,1.88,1.9,3.73,3.79,3.73,3.79.76.77.77,2.01.02,2.79l-19.2,20c-.39.41-.92.62-1.44.62-.49,0-.97-.18-1.36-.53l-20.94-19.41c-.4-.37-.63-.88-.64-1.42-.01-.54.2-1.06.58-1.45l6.98-7.06c.48-.49,1.18-.69,1.85-.55.67.15,1.22.63,1.45,1.28.68,1.88,2.8,5.92,4.99,6.35.95.19,2.06-.39,3.29-1.73,1.32-1.44,1.84-2.73,1.55-3.84-.62-2.39-4.6-4.22-5.95-4.68-.67-.23-1.17-.79-1.32-1.48-.15-.69.08-1.41.6-1.89l6.4-5.88c.75-.69,1.9-.7,2.67-.03.03.03,2.52,2.21,5.12,4.42.9-2,2.47-4.02,4.67-5.05,1.59-.74,4.83-1.51,8.66,1.69,3.3,2.77,4.55,6.14,3.42,9.24Z"/>
</svg>