<?xml version="1.0" encoding="UTF-8"?>
<svg id="Circle" xmlns="http://www.w3.org/2000/svg" viewBox="0 0 72 72">
  <defs>
    <style>
      .cls-1 {
        fill: #231f20;
      }
    </style>
  </defs>
  <path class="cls-1" d="m36,0C16.12,0,0,16.12,0,36s16.12,36,36,36,36-16.12,36-36S55.88,0,36,0Zm4.8,19.96c.73-.71,1.41-1.47,2.17-2.14.8-.71,1.76-1.12,2.82-1.29.03,0,.06-.02.08-.03h1.41c.83.15,1.63.41,2.34.89,1.39.95,2.22,2.25,2.42,3.92.22,1.8-.37,3.33-1.6,4.62-.58.6-1.18,1.18-1.77,1.77-.13.13-.22.14-.35,0-2.49-2.49-4.98-4.98-7.47-7.47-.09-.09-.17-.16-.04-.29Zm-20.95,27.34c.44-2.14.9-4.28,1.34-6.42.06-.27.18-.49.37-.69,3.48-3.48,13.96-14.96,17.43-18.44.14-.14.23-.12.35,0,2.48,2.48,4.96,4.96,7.44,7.44.15.15.14.24,0,.39-1.59,1.58-10.17,11.17-11.75,12.75-1.76,1.76-3.53,3.51-5.27,5.29-.47.48-.99.75-1.64.87-2.35.44-4.69.92-7.03,1.39-.25.05-.5.1-.76,0-.47-.17-.76-.57-.76-1.17.04-.42.18-.92.28-1.43Zm35.85,9.7H16.31c-.83,0-1.5-.67-1.5-1.5s.67-1.5,1.5-1.5h39.38c.83,0,1.5.67,1.5,1.5s-.67,1.5-1.5,1.5Z"/>
</svg>