<?xml version="1.0" encoding="UTF-8"?>
<svg id="Circle" xmlns="http://www.w3.org/2000/svg" viewBox="0 0 72 72">
  <defs>
    <style>
      .cls-1 {
        fill: #231f20;
      }
    </style>
  </defs>
  <path class="cls-1" d="m36,39.14c4.12,0,7.46-4.22,7.46-9.4s-3.35-9.4-7.46-9.4-7.46,4.22-7.46,9.4,3.35,9.4,7.46,9.4Z"/>
  <path class="cls-1" d="m41.56,46.38c-.96-.17-1.66-1-1.66-1.97v-2.09c-1.22.52-2.53.82-3.91.82-1.18,0-2.32-.21-3.39-.6v1.87c0,.93-.64,1.74-1.55,1.95-5.18,1.2-10.26,3.7-10.26,5.04,0,.07,0,.12,0,.17.77.19,2.97.05,5.11-.08,2.52-.16,5.97-.38,10.35-.38s7.82.22,10.3.39c1.92.13,3.89.26,4.64.11,0-.05,0-.12,0-.2,0-2.17-5.6-4.31-9.64-5.02Z"/>
  <path class="cls-1" d="m36,0C16.12,0,0,16.12,0,36s16.12,36,36,36,36-16.12,36-36S55.88,0,36,0Zm18.04,54.53c-1.46,1.37-3.56,1.23-7.75.95-2.42-.16-5.74-.38-10.03-.38s-7.49.21-10.09.37c-1.6.1-2.91.19-4,.19-1.96,0-3.22-.27-4.2-1.18-.79-.74-1.17-1.75-1.17-3.08s.88-5.67,11.81-8.55v-2.88c-2.49-2.46-4.07-6.13-4.07-10.22,0-7.39,5.14-13.4,11.46-13.4s11.46,6.01,11.46,13.4c0,3.8-1.37,7.24-3.56,9.68v3.35c10.73,2.34,11.3,7.57,11.3,8.64,0,.5,0,2.04-1.16,3.13Z"/>
</svg>