<?xml version="1.0" encoding="UTF-8"?>
<svg id="Circle" xmlns="http://www.w3.org/2000/svg" viewBox="0 0 72 72">
  <defs>
    <style>
      .cls-1 {
        fill: #231f20;
      }
    </style>
  </defs>
  <path class="cls-1" d="m51.17,26.59c-.86-5-3.83-6.8-10.32-6.8h-10.8c-6.49,0-9.46,1.8-10.32,6.8h31.44Z"/>
  <path class="cls-1" d="m19.45,30.59v10.6c0,7.92,2.67,10.6,10.6,10.6h10.8c7.92,0,10.6-2.67,10.6-10.6v-10.6H19.45Zm12.56,14.92c-.35.71-1.06,1.12-1.8,1.12-.3,0-.6-.07-.88-.21-1.49-.74-2.78-1.86-3.73-3.24-.88-1.31-.88-2.99-.01-4.29.96-1.4,2.24-2.52,3.74-3.26.99-.49,2.19-.08,2.68.91.49.99.08,2.19-.91,2.68-.85.42-1.56,1.03-2.12,1.81.54.77,1.26,1.38,2.12,1.81.99.49,1.4,1.69.91,2.68Zm13.96-2.35c-.95,1.4-2.24,2.52-3.74,3.26-.29.14-.59.21-.88.21-.74,0-1.45-.41-1.79-1.11-.49-.99-.08-2.19.91-2.68.85-.42,1.57-1.03,2.12-1.81-.54-.77-1.26-1.38-2.12-1.81-.99-.49-1.4-1.69-.91-2.68.49-.99,1.68-1.4,2.68-.91,1.5.74,2.78,1.86,3.73,3.24.88,1.31.88,2.99.01,4.29Z"/>
  <path class="cls-1" d="m36,0C16.12,0,0,16.12,0,36s16.12,36,36,36,36-16.12,36-36S55.88,0,36,0Zm19.45,41.19c0,10.1-4.5,14.6-14.6,14.6h-10.8c-10.1,0-14.6-4.5-14.6-14.6v-10.8c0-10.1,4.5-14.6,14.6-14.6h10.8c10.1,0,14.6,4.5,14.6,14.6v10.8Z"/>
</svg>