<?xml version="1.0" encoding="utf-8"?>
<!-- Generator: Adobe Illustrator 27.5.0, SVG Export Plug-In . SVG Version: 6.00 Build 0)  -->
<svg version="1.1" id="Layer_1" xmlns="http://www.w3.org/2000/svg" xmlns:xlink="http://www.w3.org/1999/xlink" x="0px" y="0px"
	 viewBox="0 0 2400 1260" style="enable-background:new 0 0 2400 1260;" xml:space="preserve">
<style type="text/css">
	.st0{fill:#FFFFFF;}
	.st1{clip-path:url(#SVGID_00000064347103128427168130000014700191646379038861_);fill:#E0F6F8;}
	.st2{fill:#CEF2F5;}
	.st3{clip-path:url(#SVGID_00000136384453138192057200000016353069854398148524_);}
	.st4{fill:none;stroke:#22B19D;stroke-width:15;stroke-linecap:square;stroke-linejoin:bevel;stroke-miterlimit:10;}
	.st5{fill:#22B19D;}
</style>
<g>
	<g id="Layer_2_00000173147245237718959570000003255820564910412716_">
		<rect x="0.1" y="-0.4" class="st0" width="2400" height="1260"/>
	</g>
	<g>
		<defs>
			<rect id="SVGID_1_" x="0.1" y="-0.4" width="2400" height="1260"/>
		</defs>
		<clipPath id="SVGID_00000140729822516381359530000016455186665900075140_">
			<use xlink:href="#SVGID_1_"  style="overflow:visible;"/>
		</clipPath>
		
			<path id="Background-2_00000123417567042351769680000015593991286497384365_" style="clip-path:url(#SVGID_00000140729822516381359530000016455186665900075140_);fill:#E0F6F8;" d="
			M2.4,402.4c0,0,1806.6-121.6,1801.7,816.9c-4.3,835.3-1474.9,680.8-1804.2,1282.5v650.1c245.8,603.5,1116.7,771.8,2085.8,519.3
			c130.2-33.9,235-96.6,317.7-181.4c-1.1-523.1-1.1-2762.3-1.1-3490.2H2.4V402.4z"/>
	</g>
	<path id="Path_2_00000124848654721855950090000002643211796977555102_" class="st2" d="M1063.4-0.4c0,0,85.5,189.3,422.2,189.3
		s221.4-37.5,513.1-37.5s403.4,78.3,403.4,78.3V-0.4H1063.4z"/>
</g>
<g>
	<g>
		<g>
			<defs>
				<circle id="SVGID_00000073708238726466132580000006143330631588150200_" cx="355.5" cy="630" r="186.8"/>
			</defs>
			<clipPath id="SVGID_00000160156821864834902400000007106419559404095913_">
				<use xlink:href="#SVGID_00000073708238726466132580000006143330631588150200_"  style="overflow:visible;"/>
			</clipPath>
			
				<g transform="matrix(1 0 0 1 -1.525879e-05 0)" style="clip-path:url(#SVGID_00000160156821864834902400000007106419559404095913_);">
				
					<image style="overflow:visible;enable-background:new    ;" width="500" height="500" xlink:href="../../../Resume/Assets/me_500x500.png"  transform="matrix(0.7346 0 0 0.7346 171.8822 446.3439)">
				</image>
			</g>
		</g>
		<g>
			<circle id="SVGID_00000101097587500835477320000001348161086134401958_" class="st4" cx="355.5" cy="630" r="186.8"/>
		</g>
	</g>
	<g>
		<g>
			<g>
				<path class="st5" d="M635.3,667.5v-41.2h8.6l13.8,33.7h0.1l14-33.7h8.5v41.2H675v-35.1h-0.3l-14.5,35.1h-5.5l-14.4-35.1H640
					v35.1H635.3z"/>
				<path class="st5" d="M693.7,678.6c-0.8,0-1.5-0.1-2.2-0.2c-0.7-0.1-1.4-0.4-2.1-0.6v-4c0.4,0.2,1,0.3,1.7,0.5s1.3,0.3,1.9,0.3
					c1,0,1.9-0.2,2.6-0.7c0.7-0.4,1.3-1.2,1.9-2.3c0.6-1.1,1.3-2.6,2-4.6l-12.1-30.2h5.4l9.1,23.8h0.3l9.1-23.8h4.9l-11.8,29.6
					c-0.8,2.2-1.7,4.3-2.6,6.2s-2,3.3-3.3,4.4C697.2,678.1,695.6,678.6,693.7,678.6z"/>
				<path class="st5" d="M736.4,667.5v-30.7h3.5l0.8,4.6c1.1-1.7,2.5-3,4.4-3.8c1.8-0.9,3.8-1.3,5.8-1.3c2.1,0,4,0.4,5.6,1.2
					s2.9,2,3.9,3.6c0.9,1.6,1.4,3.6,1.4,6.1v20.3h-5V648c0-2.8-0.6-4.8-1.9-6c-1.3-1.2-3.1-1.8-5.4-1.8c-1.5,0-2.9,0.4-4.1,1.1
					c-1.2,0.7-2.2,1.7-2.9,3s-1.1,2.7-1.1,4.3v18.9H736.4z"/>
				<path class="st5" d="M779.9,668.1c-1.6,0-3.2-0.3-4.7-0.8s-2.7-1.4-3.6-2.6c-0.9-1.3-1.4-3-1.4-5.1c0-2.2,0.5-4,1.5-5.3
					s2.4-2.4,4.3-3.1c1.8-0.7,4-1.2,6.5-1.4s5.3-0.3,8.4-0.3V646c0-2.3-0.6-3.9-1.7-4.8c-1.1-0.9-3-1.4-5.4-1.4
					c-2.1,0-3.9,0.4-5.4,1.3c-1.5,0.9-2.3,2.3-2.3,4.2v0.8h-4.8c0-0.2-0.1-0.4-0.1-0.7c0-0.2,0-0.5,0-0.7c0-1.8,0.5-3.3,1.6-4.6
					s2.6-2.3,4.4-2.9c1.9-0.7,4-1,6.3-1h0.7c3.9,0,6.8,0.8,8.7,2.3s2.9,3.8,2.9,6.8v16.9c0,0.7,0.1,1.2,0.5,1.6
					c0.3,0.3,0.7,0.5,1.1,0.5c0.4,0,0.9-0.1,1.5-0.3c0.5-0.2,1-0.4,1.4-0.6v3.4c-0.5,0.4-1.1,0.7-1.9,0.9c-0.7,0.2-1.5,0.3-2.5,0.3
					c-1.2,0-2.2-0.3-2.9-0.8s-1.2-1.2-1.5-2.1c-0.3-0.9-0.4-1.8-0.5-2.9c-1.2,1.9-2.7,3.4-4.6,4.3
					C784.5,667.6,782.3,668.1,779.9,668.1z M781.7,664.3c1.5,0,2.9-0.3,4.3-1c1.4-0.7,2.6-1.7,3.5-3.1s1.4-3.1,1.4-5.3v-2.2
					c-3.2,0-6,0.1-8.3,0.4c-2.3,0.3-4.1,0.9-5.4,1.8c-1.3,0.9-1.9,2.3-1.9,4.2c0,1.8,0.5,3.1,1.6,3.9
					C777.8,663.9,779.5,664.3,781.7,664.3z"/>
				<path class="st5" d="M807.7,667.5v-30.7h3.6l0.8,4.6c1-1.6,2.2-2.9,3.7-3.8c1.5-0.9,3.2-1.4,5.1-1.4c2,0,3.8,0.4,5.4,1.2
					c1.6,0.8,2.8,2.1,3.7,3.9c0.8-1.4,2.1-2.7,3.7-3.6c1.6-1,3.5-1.5,5.7-1.5c2,0,3.7,0.4,5.2,1.2s2.7,2,3.6,3.6
					c0.9,1.6,1.3,3.6,1.3,6.1v20.3h-5v-19.1c0-2.8-0.6-4.9-1.7-6.2c-1.1-1.3-2.7-2-4.8-2c-1.4,0-2.6,0.4-3.6,1.1s-1.9,1.7-2.5,2.9
					s-0.9,2.7-0.9,4.3v19h-5v-19.1c0-2.8-0.6-4.9-1.7-6.2c-1.1-1.3-2.7-2-4.8-2c-1.4,0-2.6,0.4-3.6,1.1s-1.9,1.7-2.5,2.9
					s-0.9,2.7-0.9,4.3v19h-4.8V667.5z"/>
				<path class="st5" d="M871.9,668.1c-2.6,0-5-0.6-7-1.8s-3.6-3-4.7-5.3c-1.1-2.3-1.7-5.1-1.7-8.3v-1.1c0-3.3,0.6-6.1,1.8-8.3
					c1.2-2.3,2.8-4,4.9-5.2c2.1-1.2,4.4-1.8,7.1-1.8h0.5c2.4,0,4.5,0.5,6.4,1.5s3.3,2.5,4.4,4.4s1.6,4.2,1.6,6.8v3.8h-21.4
					c0,2.5,0.3,4.6,1,6.3s1.7,3.1,2.9,4s2.8,1.4,4.6,1.4c1.5,0,2.8-0.3,4.1-0.9c1.2-0.6,2.2-1.5,2.9-2.7s1.1-2.8,1.1-4.6h4.7
					c0,2.4-0.6,4.6-1.7,6.4c-1.1,1.8-2.7,3.2-4.6,4.1s-4.1,1.4-6.4,1.4h-0.5V668.1z M863.7,649.4h16.5c0-3.2-0.7-5.6-2.1-7.2
					s-3.4-2.3-5.9-2.3c-2.3,0-4.2,0.8-5.8,2.4C864.7,643.8,863.9,646.2,863.7,649.4z"/>
				<path class="st5" d="M908.2,628.7v-4.4h5.4v4.4H908.2z M908.4,667.5v-30.7h5v30.7H908.4z"/>
				<path class="st5" d="M934.4,668.1c-2.2,0-4.1-0.3-5.6-0.8c-1.6-0.5-2.8-1.3-3.8-2.1c-1-0.9-1.7-1.8-2.2-2.9c-0.5-1-0.7-2-0.7-3
					c0-0.2,0-0.5,0-0.6s0-0.4,0.1-0.8h4.4c0,0.2-0.1,0.3-0.1,0.4c0,0.1,0,0.2,0,0.3c0,1.2,0.4,2.3,1.2,3.1s1.8,1.5,3.2,1.9
					c1.3,0.4,2.9,0.7,4.6,0.7c1.6,0,2.9-0.2,4.1-0.6c1.2-0.4,2.1-1,2.8-1.8s1-1.7,1-2.7c0-1.2-0.4-2.2-1.1-2.9s-1.7-1.2-2.9-1.6
					c-1.2-0.4-2.5-0.7-4-1s-2.9-0.6-4.4-0.9c-1.5-0.3-2.8-0.8-4-1.4c-1.2-0.6-2.2-1.4-2.9-2.4s-1.1-2.4-1.1-4.1
					c0-1.3,0.3-2.5,0.8-3.6s1.4-2,2.4-2.8c1.1-0.8,2.4-1.4,3.9-1.8c1.5-0.4,3.2-0.7,5.2-0.7h0.6c1.8,0,3.5,0.2,4.9,0.7
					s2.6,1.1,3.6,1.9c1,0.8,1.7,1.7,2.2,2.7s0.8,2,0.8,3c0,0.2,0,0.4,0,0.6c0,0.2,0,0.4,0,0.4h-4.5v-0.7c0-0.4-0.1-0.9-0.3-1.4
					s-0.5-1.1-1.1-1.6s-1.3-1-2.3-1.4s-2.4-0.5-4.1-0.5c-1.6,0-2.8,0.2-3.8,0.5s-1.8,0.8-2.3,1.3s-0.8,1-1,1.5s-0.3,1-0.3,1.4
					c0,1,0.4,1.9,1.1,2.5c0.7,0.6,1.7,1.1,2.9,1.4c1.2,0.3,2.6,0.6,4,0.9c1.5,0.3,2.9,0.6,4.4,0.9c1.5,0.4,2.8,0.8,4,1.4
					s2.2,1.4,2.9,2.5s1.1,2.4,1.1,4.1c0,1.8-0.3,3.3-1,4.5s-1.6,2.2-2.8,3s-2.5,1.3-4.1,1.7c-1.5,0.3-3.2,0.5-4.9,0.5h-0.9V668.1z"
					/>
				<path class="st5" d="M975.9,667.5l4.9-34.9h-12.3l0.9-6.3h32.1l-0.9,6.3h-12.3l-4.9,34.9H975.9z"/>
				<path class="st5" d="M1003.2,678.6c-1,0-1.8-0.1-2.6-0.2c-0.8-0.1-1.5-0.4-2-0.6l0.7-5.3c0.4,0.2,1,0.4,1.7,0.6
					c0.7,0.2,1.4,0.3,2,0.3c0.7,0,1.4-0.2,2.2-0.5c0.8-0.4,1.6-1,2.4-2s1.6-2.4,2.3-4.1l-7.7-29.8h7.5l4.9,21.1h0.3l10.6-21.1h7
					l-15.3,29.2c-1.2,2.3-2.5,4.4-3.9,6.3c-1.4,1.9-2.9,3.4-4.6,4.6C1007,678.1,1005.2,678.6,1003.2,678.6z"/>
				<path class="st5" d="M1032.6,667.5l6.1-43.2h7.1l-6.1,43.2H1032.6z"/>
				<path class="st5" d="M1062.1,668.1c-2.5,0-4.7-0.5-6.6-1.4c-1.9-1-3.4-2.4-4.4-4.2c-1.1-1.8-1.6-4.1-1.6-6.7
					c0-2.7,0.4-5.3,1.1-7.6c0.7-2.4,1.7-4.4,3.1-6.2s3.1-3.2,5.2-4.2s4.5-1.5,7.2-1.5h0.7c2.2,0,4.3,0.4,6.1,1.3s3.3,2.1,4.3,3.7
					c1.1,1.6,1.6,3.5,1.6,5.8c0,0.5,0,1.1-0.1,1.7c-0.1,0.7-0.2,1.4-0.3,2.2c-0.1,0.8-0.3,1.7-0.4,2.6h-21.3c0,0.4-0.1,0.8-0.1,1.2
					s-0.1,0.8-0.1,1.1c0,2,0.5,3.7,1.6,5.1c1,1.3,2.7,2,5,2c1.8,0,3.2-0.4,4.3-1.1s1.9-1.6,2.4-2.7c0.5-1.1,0.9-2.1,1.1-3h6.7
					c-0.4,2.6-1.2,4.8-2.6,6.6s-3.1,3.2-5.3,4.1c-2.1,0.9-4.5,1.4-7,1.4h-0.6V668.1z M1057.3,648.9h14.2c0.1-0.4,0.1-0.8,0.1-1.1
					s0-0.6,0-0.8c0-1.8-0.5-3.1-1.5-4.1s-2.5-1.5-4.4-1.5c-2.1,0-3.9,0.6-5.4,1.9C1058.9,644.5,1057.9,646.4,1057.3,648.9z"/>
				<path class="st5" d="M1083.4,667.5l4.3-30.7h5.3l0.2,4.6c0.1-0.2,0.3-0.5,0.7-1.1s1-1.1,1.8-1.8c0.8-0.6,1.8-1.2,2.9-1.7
					c1.2-0.5,2.6-0.7,4.2-0.7c2.5,0,4.4,0.7,5.6,2.2c1.3,1.5,1.9,3.3,1.9,5.6c0,0.8-0.1,1.6-0.2,2.5c-0.2,0.9-0.3,1.5-0.5,2h-6.1
					c0.1-0.4,0.1-0.8,0.2-1.2s0.1-0.8,0.1-1c0-0.7-0.1-1.4-0.4-2.1c-0.3-0.7-0.7-1.3-1.4-1.7c-0.6-0.5-1.5-0.7-2.6-0.7
					c-1,0-1.8,0.2-2.6,0.6c-0.7,0.4-1.4,1-1.9,1.7s-0.9,1.5-1.2,2.3c-0.3,0.8-0.5,1.7-0.6,2.6l-2.6,18.6L1083.4,667.5L1083.4,667.5z
					"/>
				<path class="st5" d="M1140.3,668.1c-2.6,0-5-0.4-7.2-1.1c-2.1-0.7-3.8-1.8-5.1-3.3c-1.3-1.5-1.9-3.5-1.9-6.1
					c0-0.5,0-1.1,0.1-1.7c0.1-0.6,0.2-1.2,0.3-1.6h7.2c-0.1,0.2-0.2,0.5-0.2,1s-0.1,0.9-0.1,1.1c0,1.2,0.3,2.2,0.9,3
					s1.4,1.5,2.6,1.9c1.1,0.4,2.6,0.7,4.3,0.7c2.3,0,4.2-0.3,5.6-0.8c1.5-0.5,2.6-1.3,3.3-2.3c0.7-1,1.1-2.2,1.1-3.5
					c0-1.2-0.4-2.2-1.2-2.9c-0.8-0.7-1.8-1.3-3.1-1.7c-1.3-0.5-2.7-0.9-4.2-1.3c-1.5-0.4-3.1-0.8-4.6-1.3s-3-1.1-4.2-1.9
					c-1.3-0.8-2.3-1.8-3.1-3.1c-0.8-1.3-1.2-2.9-1.2-4.9c0-2.8,0.7-5.1,2.2-7s3.5-3.3,6-4.2c2.6-0.9,5.5-1.4,8.7-1.4
					c2.5,0,4.8,0.3,6.9,1s3.7,1.8,5,3.2c1.2,1.5,1.8,3.4,1.8,5.7c0,0.3,0,0.6,0,1.1c0,0.4-0.1,0.9-0.2,1.5h-7.1
					c0.1-0.4,0.1-0.8,0.2-1c0-0.2,0-0.4,0-0.6c0-1.5-0.6-2.7-1.9-3.6c-1.3-0.9-3-1.3-5.1-1.3c-1.8,0-3.4,0.2-4.8,0.7
					c-1.3,0.4-2.4,1.1-3.1,1.9c-0.7,0.8-1.1,1.9-1.1,3.1c0,1.2,0.4,2.1,1.2,2.8c0.8,0.7,1.8,1.3,3.1,1.7c1.3,0.4,2.7,0.9,4.3,1.2
					c1.5,0.4,3.1,0.8,4.6,1.3s3,1.1,4.3,1.9s2.3,1.8,3.1,3.1c0.8,1.3,1.2,2.9,1.2,4.8c0,2.3-0.4,4.4-1.3,6.1
					c-0.9,1.8-2.1,3.2-3.7,4.4s-3.5,2-5.8,2.6C1145.8,667.8,1143.2,668.1,1140.3,668.1z"/>
				<path class="st5" d="M1170.8,667.5l-5.5-30.7h7.1l3.5,21.1h0.3l9.4-21.1h7l3.3,21.1h0.3l9.4-21.1h6.9l-14,30.7h-7.6l-3.4-19.5
					h-0.3l-8.7,19.5H1170.8z"/>
				<path class="st5" d="M1213.3,667.5l4.3-30.7h7.1l-4.3,30.7H1213.3z M1218.4,630.2l0.8-6h7.3l-0.8,6H1218.4z"/>
				<path class="st5" d="M1229.7,667.5l4.3-30.7h5.3l0.1,4.5c1-1.1,2-2,3.1-2.8s2.3-1.3,3.6-1.7c1.3-0.4,2.7-0.6,4.1-0.6
					c2.7,0,5,0.7,6.8,2s2.7,3.4,2.7,6.3c0,0.2,0,0.6-0.1,1.1c0,0.5-0.1,1.2-0.2,2.1c-0.1,0.9-0.3,2.2-0.5,3.9s-0.5,3.8-0.9,6.4
					s-0.8,5.8-1.4,9.6h-7.1c0.5-3.6,1-6.5,1.3-8.9s0.6-4.4,0.8-5.9s0.4-2.7,0.5-3.5s0.2-1.4,0.2-1.8c0-0.4,0.1-0.7,0.1-0.9
					c0-1.6-0.5-2.9-1.4-3.7s-2.1-1.3-3.6-1.3c-1.2,0-2.4,0.3-3.6,1s-2.2,1.5-3,2.6s-1.3,2.4-1.5,3.8l-2.6,18.6L1229.7,667.5
					L1229.7,667.5z"/>
				<path class="st5" d="M1276.2,668.1c-3,0-5.6-1-7.6-2.9c-2-2-3-5-3-9.1c0-2.7,0.3-5.2,1-7.6c0.6-2.4,1.6-4.5,2.9-6.3
					s2.8-3.3,4.6-4.3c1.8-1,3.8-1.6,6.1-1.6c2.1,0,3.9,0.4,5.3,1.3c1.4,0.9,2.4,1.9,3.1,3l2.3-16.3h7.1c-0.2,1.4-0.4,3-0.7,5
					c-0.3,1.9-0.6,4-0.9,6.3s-0.7,4.6-1,6.9c-0.3,2.3-0.7,4.6-1,6.8s-0.6,4.1-0.8,5.9c-0.2,1.8-0.4,3.2-0.6,4.3
					c-0.1,1.1-0.2,1.7-0.2,1.9c0,0.6,0.1,1,0.4,1.2c0.3,0.3,0.6,0.4,1,0.4s0.9-0.1,1.4-0.3s0.9-0.4,1.3-0.6l-0.7,4.9
					c-0.5,0.3-1.2,0.6-2,0.8c-0.9,0.3-1.9,0.4-2.9,0.4c-1.2,0-2.2-0.2-3-0.5c-0.8-0.4-1.4-0.9-1.7-1.5s-0.6-1.4-0.7-2.3
					c-1.2,1.3-2.6,2.4-4.2,3.2C1279.9,667.7,1278.2,668.1,1276.2,668.1z M1278.3,662.8c1.4,0,2.7-0.3,3.8-1c1.1-0.7,2-1.7,2.8-2.9
					c0.7-1.3,1.3-2.8,1.5-4.5c0.3-1.8,0.5-3.2,0.5-4c0.1-0.8,0.1-1.5,0.1-2.1c0-2.1-0.5-3.8-1.4-5s-2.4-1.8-4.4-1.8
					c-1.6,0-3,0.4-4.1,1.2s-2,1.9-2.7,3.3s-1.1,2.9-1.4,4.6c-0.2,1.7-0.4,3-0.5,3.7s-0.1,1.4-0.1,1.9c0,2.1,0.5,3.8,1.4,4.9
					C1274.9,662.3,1276.4,662.8,1278.3,662.8z"/>
				<path class="st5" d="M1314.8,668.1c-2.5,0-4.7-0.5-6.6-1.4c-1.9-1-3.4-2.4-4.4-4.2c-1.1-1.8-1.6-4.1-1.6-6.7
					c0-2.7,0.4-5.3,1.1-7.6c0.7-2.4,1.7-4.4,3.1-6.2s3.1-3.2,5.2-4.2s4.5-1.5,7.2-1.5h0.7c2.2,0,4.3,0.4,6.1,1.3s3.3,2.1,4.3,3.7
					c1.1,1.6,1.6,3.5,1.6,5.8c0,0.5,0,1.1-0.1,1.7c-0.1,0.7-0.2,1.4-0.3,2.2c-0.1,0.8-0.3,1.7-0.4,2.6h-21.3c0,0.4-0.1,0.8-0.1,1.2
					s-0.1,0.8-0.1,1.1c0,2,0.5,3.7,1.6,5.1c1,1.3,2.7,2,5,2c1.8,0,3.2-0.4,4.3-1.1s1.9-1.6,2.4-2.7c0.5-1.1,0.9-2.1,1.1-3h6.7
					c-0.4,2.6-1.2,4.8-2.6,6.6s-3.1,3.2-5.3,4.1c-2.1,0.9-4.5,1.4-7,1.4h-0.6V668.1z M1310,648.9h14.2c0.1-0.4,0.1-0.8,0.1-1.1
					s0-0.6,0-0.8c0-1.8-0.5-3.1-1.5-4.1s-2.5-1.5-4.4-1.5c-2.1,0-3.9,0.6-5.4,1.9C1311.6,644.5,1310.6,646.4,1310,648.9z"/>
				<path class="st5" d="M1335.9,667.5l6.1-43.2h7.1l-6.1,43.2H1335.9z"/>
				<path class="st5" d="M1352.3,667.5l6.1-43.2h7.1l-6.1,43.2H1352.3z"/>
				<path class="st5" d="M1369.3,667.5l1-7.7h7.3l-1.1,7.7H1369.3z"/>
				<path d="M632.6,721.5v-3.2h3.6v-24.4h-3.6v-3.2h11.2v3.2h-3.6v24.4h3.6v3.2H632.6z"/>
				<path d="M666.8,722c-1.2,0-2.4-0.2-3.5-0.6c-1.1-0.4-2-1-2.7-2c-0.7-0.9-1.1-2.2-1.1-3.9s0.4-3,1.1-4c0.8-1,1.8-1.8,3.2-2.3
					s3-0.9,4.9-1s4-0.2,6.3-0.2v-2.6c0-1.7-0.4-2.9-1.3-3.6c-0.9-0.7-2.2-1-4.1-1c-1.6,0-2.9,0.3-4,1c-1.1,0.6-1.7,1.7-1.7,3.2v0.6
					h-3.6c0-0.1-0.1-0.3-0.1-0.5s0-0.4,0-0.5c0-1.4,0.4-2.5,1.2-3.5s1.9-1.7,3.3-2.2c1.4-0.5,3-0.8,4.7-0.8h0.5
					c2.9,0,5.1,0.6,6.5,1.8s2.2,2.9,2.2,5.1v12.7c0,0.5,0.1,0.9,0.3,1.2c0.2,0.2,0.5,0.4,0.8,0.4s0.7-0.1,1.1-0.2s0.8-0.3,1.1-0.5
					v2.6c-0.4,0.3-0.9,0.5-1.4,0.7c-0.5,0.1-1.2,0.2-1.8,0.2c-0.9,0-1.7-0.2-2.2-0.6c-0.5-0.4-0.9-0.9-1.1-1.6
					c-0.2-0.6-0.3-1.4-0.4-2.1c-0.9,1.4-2,2.5-3.4,3.2C670.3,721.6,668.7,722,666.8,722z M668.2,719.2c1.1,0,2.2-0.3,3.2-0.8
					c1.1-0.5,1.9-1.3,2.6-2.3s1-2.3,1-3.9v-1.7c-2.4,0-4.5,0.1-6.2,0.3c-1.8,0.2-3.1,0.7-4.1,1.3c-0.9,0.7-1.4,1.7-1.4,3.2
					c0,1.4,0.4,2.3,1.2,3C665.3,718.9,666.5,719.2,668.2,719.2z"/>
				<path d="M687.7,721.5v-23h2.7l0.6,3.4c0.7-1.2,1.7-2.2,2.8-2.9s2.4-1,3.8-1c1.5,0,2.8,0.3,4,0.9c1.2,0.6,2.1,1.6,2.8,2.9
					c0.6-1.1,1.5-2,2.7-2.7s2.6-1.1,4.3-1.1c1.5,0,2.8,0.3,3.9,0.9c1.1,0.6,2,1.5,2.7,2.7s1,2.7,1,4.6v15.2h-3.7v-14.3
					c0-2.1-0.4-3.7-1.2-4.7s-2-1.5-3.6-1.5c-1,0-1.9,0.3-2.7,0.8s-1.4,1.3-1.9,2.2s-0.7,2-0.7,3.2v14.2h-3.7V707
					c0-2.1-0.4-3.7-1.2-4.7s-2-1.5-3.6-1.5c-1,0-1.9,0.3-2.7,0.8s-1.4,1.3-1.8,2.2c-0.5,0.9-0.7,2-0.7,3.2v14.2h-3.8V721.5z"/>
				<path d="M743.1,722c-1.2,0-2.4-0.2-3.5-0.6c-1.1-0.4-2-1-2.7-2c-0.7-0.9-1.1-2.2-1.1-3.9s0.4-3,1.1-4c0.8-1,1.8-1.8,3.2-2.3
					s3-0.9,4.9-1s4-0.2,6.3-0.2v-2.6c0-1.7-0.4-2.9-1.3-3.6c-0.9-0.7-2.2-1-4.1-1c-1.6,0-2.9,0.3-4,1c-1.1,0.6-1.7,1.7-1.7,3.2v0.6
					h-3.6c0-0.1-0.1-0.3-0.1-0.5s0-0.4,0-0.5c0-1.4,0.4-2.5,1.2-3.5s1.9-1.7,3.3-2.2c1.4-0.5,3-0.8,4.7-0.8h0.5
					c2.9,0,5.1,0.6,6.5,1.8s2.2,2.9,2.2,5.1v12.7c0,0.5,0.1,0.9,0.3,1.2c0.2,0.2,0.5,0.4,0.8,0.4s0.7-0.1,1.1-0.2s0.8-0.3,1.1-0.5
					v2.6c-0.4,0.3-0.9,0.5-1.4,0.7c-0.5,0.1-1.2,0.2-1.8,0.2c-0.9,0-1.7-0.2-2.2-0.6c-0.5-0.4-0.9-0.9-1.1-1.6
					c-0.2-0.6-0.3-1.4-0.4-2.1c-0.9,1.4-2,2.5-3.4,3.2C746.6,721.6,745,722,743.1,722z M744.5,719.2c1.1,0,2.2-0.3,3.2-0.8
					c1.1-0.5,1.9-1.3,2.6-2.3s1-2.3,1-3.9v-1.7c-2.4,0-4.5,0.1-6.2,0.3c-1.8,0.2-3.1,0.7-4.1,1.3c-0.9,0.7-1.4,1.7-1.4,3.2
					c0,1.4,0.4,2.3,1.2,3C741.6,718.9,742.8,719.2,744.5,719.2z"/>
				<path d="M774.5,721.5v-23h2.7l0.6,3.4c0.7-1.2,1.7-2.2,2.8-2.9s2.4-1,3.8-1c1.5,0,2.8,0.3,4,0.9c1.2,0.6,2.1,1.6,2.8,2.9
					c0.6-1.1,1.5-2,2.7-2.7s2.6-1.1,4.3-1.1c1.5,0,2.8,0.3,3.9,0.9c1.1,0.6,2,1.5,2.7,2.7s1,2.7,1,4.6v15.2h-3.7v-14.3
					c0-2.1-0.4-3.7-1.2-4.7s-2-1.5-3.6-1.5c-1,0-1.9,0.3-2.7,0.8s-1.4,1.3-1.9,2.2s-0.7,2-0.7,3.2v14.2h-3.7V707
					c0-2.1-0.4-3.7-1.2-4.7s-2-1.5-3.6-1.5c-1,0-1.9,0.3-2.7,0.8s-1.4,1.3-1.8,2.2c-0.5,0.9-0.7,2-0.7,3.2v14.2h-3.8V721.5z"/>
				<path d="M821.3,722c-2.4,0-4.3-0.7-5.7-2c-1.5-1.3-2.2-3.4-2.2-6.2v-15.3h3.7v14.4c0,2.2,0.5,3.7,1.4,4.7
					c0.9,0.9,2.2,1.4,3.9,1.4c1.2,0,2.2-0.3,3.2-0.8s1.7-1.3,2.3-2.2s0.9-2,0.9-3.2v-14.2h3.7v19.1c0,0.5,0.1,0.9,0.4,1.2
					c0.2,0.2,0.5,0.4,0.9,0.4c0.3,0,0.7-0.1,1.1-0.2c0.4-0.1,0.8-0.3,1.1-0.5v2.6c-0.4,0.3-0.9,0.5-1.4,0.7
					c-0.6,0.1-1.2,0.2-1.8,0.2c-0.9,0-1.7-0.2-2.2-0.6c-0.5-0.4-0.9-0.9-1.1-1.4c-0.2-0.6-0.3-1.2-0.4-1.8c-0.8,1.2-1.9,2.1-3.3,2.8
					S822.8,722,821.3,722z"/>
				<path d="M841.5,721.5v-32.4h3.7v32.4H841.5z"/>
				<path d="M859.3,722c-1,0-1.9-0.2-2.8-0.5c-0.8-0.3-1.5-0.9-1.9-1.7c-0.5-0.8-0.7-1.8-0.7-3.1v-15.2h-2.5v-3h2.6l1.3-7.3h2.4v7.3
					h5.4v3h-5.4v14.6c0,1.3,0.3,2.2,0.8,2.5c0.5,0.4,1.1,0.5,1.8,0.5c0.3,0,0.8-0.1,1.4-0.2s1.1-0.3,1.4-0.5v2.7
					c-0.3,0.2-0.7,0.3-1.1,0.5c-0.4,0.1-0.9,0.2-1.3,0.3C860.2,721.9,859.7,722,859.3,722z"/>
				<path d="M869.7,692.4v-3.3h4.1v3.3H869.7z M869.8,721.5v-23h3.7v23H869.8z"/>
				<path d="M889.9,722c-1.7,0-3.3-0.4-4.7-1.2s-2.5-2.1-3.4-3.9c-0.9-1.8-1.3-4-1.3-6.8v-0.5c0-2.5,0.4-4.6,1.2-6.3s1.9-3,3.3-3.9
					s2.9-1.3,4.5-1.3s3,0.3,4.2,0.9c1.2,0.6,2.1,1.5,2.8,2.5v-12.4h3.7v32.4h-2.8l-0.5-3.3c-0.8,1.2-1.8,2.1-3,2.8
					S891.5,722,889.9,722z M890.5,719.2c1.1,0,2.2-0.3,3.1-0.8c0.9-0.5,1.7-1.4,2.3-2.7c0.6-1.2,0.9-2.9,0.9-5v-1.8
					c0-1.8-0.3-3.3-0.8-4.5c-0.6-1.2-1.3-2-2.2-2.6s-2-0.9-3.2-0.9c-1.7,0-3.1,0.7-4.3,2c-1.2,1.4-1.8,3.4-1.8,6.1v1.8
					c0,2.1,0.3,3.8,0.8,5s1.3,2.1,2.2,2.6C888.3,718.9,889.4,719.2,890.5,719.2z"/>
				<path d="M908.3,692.4v-3.3h4.1v3.3H908.3z M908.4,721.5v-23h3.7v23H908.4z"/>
				<path d="M927.9,722c-1.7,0-3.1-0.2-4.2-0.6c-1.2-0.4-2.1-0.9-2.9-1.6c-0.8-0.7-1.3-1.4-1.6-2.1c-0.3-0.8-0.5-1.5-0.5-2.2
					c0-0.2,0-0.3,0-0.5c0-0.1,0-0.3,0-0.6h3.3c0,0.1,0,0.2,0,0.3s0,0.2,0,0.2c0,0.9,0.3,1.7,0.9,2.3c0.6,0.6,1.4,1.1,2.4,1.4
					c1,0.3,2.1,0.5,3.5,0.5c1.2,0,2.2-0.2,3.1-0.5c0.9-0.3,1.6-0.8,2.1-1.3c0.5-0.6,0.8-1.2,0.8-2c0-0.9-0.3-1.6-0.8-2.1
					s-1.3-0.9-2.2-1.2s-1.9-0.5-3-0.7s-2.2-0.4-3.3-0.7s-2.1-0.6-3-1s-1.6-1-2.2-1.8c-0.6-0.8-0.8-1.8-0.8-3.1c0-1,0.2-1.9,0.6-2.7
					c0.4-0.8,1-1.5,1.8-2.1s1.8-1,2.9-1.4c1.1-0.3,2.4-0.5,3.9-0.5h0.5c1.4,0,2.6,0.2,3.7,0.5c1.1,0.4,2,0.8,2.7,1.4
					c0.7,0.6,1.3,1.3,1.7,2s0.6,1.5,0.6,2.2c0,0.1,0,0.3,0,0.4c0,0.2,0,0.3,0,0.3h-3.4v-0.5c0-0.3-0.1-0.6-0.2-1
					c-0.1-0.4-0.4-0.8-0.8-1.2c-0.4-0.4-1-0.7-1.7-1s-1.8-0.4-3.1-0.4c-1.2,0-2.1,0.1-2.9,0.4c-0.8,0.3-1.3,0.6-1.7,0.9
					c-0.4,0.4-0.6,0.8-0.8,1.1c-0.1,0.4-0.2,0.7-0.2,1c0,0.8,0.3,1.4,0.8,1.9s1.3,0.8,2.2,1.1s1.9,0.5,3,0.7s2.2,0.4,3.3,0.7
					s2.1,0.6,3,1.1s1.6,1.1,2.2,1.9c0.5,0.8,0.8,1.8,0.8,3.1s-0.2,2.4-0.7,3.4c-0.5,0.9-1.2,1.7-2.1,2.3c-0.9,0.6-1.9,1-3,1.2
					c-1.1,0.3-2.4,0.4-3.7,0.4L927.9,722L927.9,722z"/>
				<path d="M953.2,722c-1.9,0-3.6-0.5-5-1.4c-1.5-0.9-2.6-2.3-3.5-4c-0.8-1.7-1.3-3.8-1.3-6.1v-0.9c0-1.8,0.3-3.4,0.8-4.8
					c0.5-1.4,1.2-2.6,2.1-3.6c0.9-1,2-1.8,3.2-2.3s2.5-0.8,3.9-0.8h0.4c1.8,0,3.4,0.4,4.8,1.1c1.4,0.8,2.5,1.8,3.3,3.2
					s1.2,3.1,1.2,5.1h-3.4c0-1.5-0.3-2.7-0.8-3.7s-1.2-1.7-2.1-2.2c-0.9-0.5-1.9-0.7-3-0.7c-1.8,0-3.4,0.6-4.6,1.9
					c-1.2,1.3-1.8,3.3-1.8,5.9v2.6c0,2.6,0.6,4.6,1.8,5.9c1.2,1.3,2.8,2,4.6,2c1.1,0,2.2-0.2,3.1-0.7c0.9-0.5,1.6-1.2,2.2-2.2
					c0.5-1,0.8-2.2,0.8-3.8h3.3c0,2-0.4,3.7-1.3,5.1c-0.8,1.4-2,2.5-3.4,3.2s-3,1.1-4.8,1.1h-0.5V722z"/>
				<path d="M969.5,692.4v-3.3h4.1v3.3H969.5z M969.7,721.5v-23h3.7v23H969.7z"/>
				<path d="M981.3,729.7v-31.2h2.7l0.6,3.3c0.8-1.2,1.8-2.1,3-2.8c1.2-0.6,2.7-1,4.3-1c1.7,0,3.3,0.4,4.7,1.2
					c1.4,0.8,2.5,2,3.3,3.8c0.8,1.7,1.2,4,1.2,6.8v0.7c0,2.5-0.4,4.5-1.2,6.3c-0.8,1.7-1.9,3-3.3,3.9s-2.9,1.3-4.6,1.3
					c-1.6,0-3-0.3-4.2-1s-2.1-1.5-2.8-2.5v11.2H981.3z M991.2,719.1c1.1,0,2.2-0.3,3.1-0.9c0.9-0.6,1.6-1.4,2.2-2.6
					c0.5-1.2,0.8-2.7,0.8-4.5v-1.8c0-2.1-0.3-3.7-0.8-5c-0.5-1.2-1.3-2.1-2.2-2.7c-0.9-0.6-1.9-0.8-3.1-0.8c-1.1,0-2.1,0.3-3.1,0.8
					c-0.9,0.5-1.7,1.4-2.3,2.7c-0.6,1.2-0.9,2.9-0.9,5v1.8c0,1.8,0.3,3.3,0.8,4.5c0.6,1.2,1.3,2,2.3,2.6
					C989,718.8,990.1,719.1,991.2,719.1z"/>
				<path d="M1007.8,721.5v-32.4h3.7v32.4H1007.8z"/>
				<path d="M1019.6,692.4v-3.3h4.1v3.3H1019.6z M1019.7,721.5v-23h3.7v23H1019.7z"/>
				<path d="M1031.4,721.5v-23h2.7l0.6,3.4c0.8-1.3,1.9-2.2,3.3-2.9s2.8-1,4.3-1c1.6,0,3,0.3,4.2,0.9c1.2,0.6,2.2,1.5,2.9,2.7
					c0.7,1.2,1.1,2.7,1.1,4.6v15.2h-3.7v-14.6c0-2.1-0.5-3.6-1.4-4.5c-1-0.9-2.3-1.4-4.1-1.4c-1.1,0-2.2,0.3-3.1,0.8
					s-1.6,1.3-2.2,2.2c-0.5,0.9-0.8,2-0.8,3.2v14.2h-3.8V721.5z"/>
				<path d="M1064,722c-1.2,0-2.4-0.2-3.5-0.6c-1.1-0.4-2-1-2.7-2c-0.7-0.9-1.1-2.2-1.1-3.9s0.4-3,1.1-4c0.8-1,1.8-1.8,3.2-2.3
					c1.4-0.5,3-0.9,4.9-1s4-0.2,6.3-0.2v-2.6c0-1.7-0.4-2.9-1.3-3.6c-0.9-0.7-2.2-1-4.1-1c-1.6,0-2.9,0.3-4,1
					c-1.1,0.6-1.7,1.7-1.7,3.2v0.6h-3.6c0-0.1-0.1-0.3-0.1-0.5s0-0.4,0-0.5c0-1.4,0.4-2.5,1.2-3.5c0.8-1,1.9-1.7,3.3-2.2
					s3-0.8,4.7-0.8h0.5c2.9,0,5.1,0.6,6.5,1.8s2.2,2.9,2.2,5.1v12.7c0,0.5,0.1,0.9,0.3,1.2c0.2,0.2,0.5,0.4,0.8,0.4s0.7-0.1,1.1-0.2
					s0.8-0.3,1.1-0.5v2.6c-0.4,0.3-0.9,0.5-1.4,0.7c-0.5,0.1-1.2,0.2-1.8,0.2c-0.9,0-1.7-0.2-2.2-0.6c-0.5-0.4-0.9-0.9-1.1-1.6
					c-0.2-0.6-0.3-1.4-0.4-2.1c-0.9,1.4-2,2.5-3.4,3.2C1067.5,721.6,1065.8,722,1064,722z M1065.3,719.2c1.1,0,2.2-0.3,3.2-0.8
					c1.1-0.5,1.9-1.3,2.6-2.3s1-2.3,1-3.9v-1.7c-2.4,0-4.5,0.1-6.2,0.3c-1.8,0.2-3.1,0.7-4.1,1.3c-0.9,0.7-1.4,1.7-1.4,3.2
					c0,1.4,0.4,2.3,1.2,3C1062.5,718.9,1063.7,719.2,1065.3,719.2z"/>
				<path d="M1084.9,721.5v-23h2.7l0.6,3.4c0-0.1,0.2-0.3,0.4-0.7c0.2-0.4,0.6-0.8,1.1-1.3s1.1-0.9,2-1.3c0.8-0.4,1.8-0.6,3-0.6
					c1.6,0,3,0.3,4,1s1.8,1.6,2.3,2.7c0.5,1.1,0.8,2.4,0.8,3.8c0,0.3,0,0.6,0,0.9c0,0.3,0,0.5,0,0.6h-3.2v-0.8
					c0-0.7-0.1-1.5-0.4-2.3s-0.8-1.4-1.5-2s-1.7-0.8-2.9-0.8c-0.9,0-1.7,0.2-2.4,0.6c-0.6,0.4-1.2,0.9-1.5,1.5
					c-0.4,0.6-0.6,1.2-0.8,1.9c-0.2,0.7-0.2,1.3-0.2,1.8v14.6L1084.9,721.5L1084.9,721.5z"/>
				<path d="M1108.7,729.9c-0.6,0-1.1-0.1-1.6-0.2c-0.5-0.1-1-0.3-1.6-0.5v-3c0.3,0.1,0.7,0.2,1.2,0.4c0.5,0.1,1,0.2,1.4,0.2
					c0.8,0,1.4-0.2,1.9-0.5s1-0.9,1.4-1.7s0.9-2,1.5-3.4l-9.1-22.7h4.1l6.8,17.9h0.2l6.8-17.9h3.7l-8.8,22.2c-0.6,1.7-1.3,3.2-2,4.6
					s-1.5,2.5-2.5,3.3C1111.4,729.5,1110.2,729.9,1108.7,729.9z"/>
				<path d="M1149.1,722c-1.7,0-3.3-0.4-4.7-1.2c-1.4-0.8-2.5-2.1-3.4-3.9c-0.9-1.8-1.3-4-1.3-6.8v-0.5c0-2.5,0.4-4.6,1.2-6.3
					c0.8-1.7,1.9-3,3.3-3.9s2.9-1.3,4.5-1.3s3,0.3,4.2,0.9c1.2,0.6,2.1,1.5,2.8,2.5v-12.4h3.7v32.4h-2.8l-0.5-3.3
					c-0.8,1.2-1.8,2.1-3,2.8S1150.8,722,1149.1,722z M1149.7,719.2c1.1,0,2.2-0.3,3.1-0.8s1.7-1.4,2.3-2.7c0.6-1.2,0.9-2.9,0.9-5
					v-1.8c0-1.8-0.3-3.3-0.8-4.5c-0.6-1.2-1.3-2-2.2-2.6c-0.9-0.6-2-0.9-3.2-0.9c-1.7,0-3.1,0.7-4.3,2c-1.2,1.4-1.8,3.4-1.8,6.1v1.8
					c0,2.1,0.3,3.8,0.8,5s1.3,2.1,2.2,2.6C1147.6,718.9,1148.6,719.2,1149.7,719.2z"/>
				<path d="M1176.3,722c-2,0-3.7-0.5-5.2-1.4s-2.7-2.2-3.5-3.9s-1.3-3.8-1.3-6.2v-0.9c0-2.5,0.4-4.5,1.3-6.3c0.9-1.7,2.1-3,3.6-3.9
					s3.3-1.4,5.3-1.4h0.4c1.8,0,3.4,0.4,4.8,1.1c1.4,0.8,2.5,1.8,3.3,3.3s1.2,3.2,1.2,5.1v2.8h-16c0,1.9,0.3,3.4,0.8,4.8
					s1.2,2.3,2.2,3s2.1,1,3.5,1c1.1,0,2.1-0.2,3-0.7s1.6-1.1,2.2-2c0.5-0.9,0.8-2.1,0.8-3.4h3.6c0,1.8-0.4,3.4-1.3,4.8
					c-0.9,1.4-2,2.4-3.4,3.1c-1.4,0.7-3,1.1-4.8,1.1L1176.3,722L1176.3,722z M1170.1,708h12.3c0-2.4-0.5-4.2-1.6-5.4
					s-2.5-1.8-4.4-1.8c-1.7,0-3.2,0.6-4.4,1.8C1170.9,703.8,1170.3,705.6,1170.1,708z"/>
				<path d="M1200.6,722c-1.7,0-3.1-0.2-4.2-0.6c-1.2-0.4-2.1-0.9-2.9-1.6c-0.8-0.7-1.3-1.4-1.6-2.1c-0.3-0.8-0.5-1.5-0.5-2.2
					c0-0.2,0-0.3,0-0.5c0-0.1,0-0.3,0-0.6h3.3c0,0.1,0,0.2,0,0.3s0,0.2,0,0.2c0,0.9,0.3,1.7,0.9,2.3s1.4,1.1,2.4,1.4
					c1,0.3,2.1,0.5,3.5,0.5c1.2,0,2.2-0.2,3.1-0.5s1.6-0.8,2.1-1.3c0.5-0.6,0.8-1.2,0.8-2c0-0.9-0.3-1.6-0.8-2.1s-1.3-0.9-2.2-1.2
					c-0.9-0.3-1.9-0.5-3-0.7s-2.2-0.4-3.3-0.7c-1.1-0.3-2.1-0.6-3-1s-1.6-1-2.2-1.8s-0.8-1.8-0.8-3.1c0-1,0.2-1.9,0.6-2.7
					s1-1.5,1.8-2.1s1.8-1,2.9-1.4c1.1-0.3,2.4-0.5,3.9-0.5h0.5c1.4,0,2.6,0.2,3.7,0.5c1.1,0.4,2,0.8,2.7,1.4c0.7,0.6,1.3,1.3,1.7,2
					c0.4,0.7,0.6,1.5,0.6,2.2c0,0.1,0,0.3,0,0.4c0,0.2,0,0.3,0,0.3h-3.4v-0.5c0-0.3-0.1-0.6-0.2-1s-0.4-0.8-0.8-1.2s-1-0.7-1.7-1
					s-1.8-0.4-3.1-0.4c-1.2,0-2.1,0.1-2.9,0.4c-0.8,0.3-1.3,0.6-1.7,0.9c-0.4,0.4-0.6,0.8-0.8,1.1c-0.1,0.4-0.2,0.7-0.2,1
					c0,0.8,0.3,1.4,0.8,1.9s1.3,0.8,2.2,1.1c0.9,0.3,1.9,0.5,3,0.7s2.2,0.4,3.3,0.7c1.1,0.3,2.1,0.6,3,1.1s1.6,1.1,2.2,1.9
					c0.5,0.8,0.8,1.8,0.8,3.1s-0.2,2.4-0.7,3.4c-0.5,0.9-1.2,1.7-2.1,2.3s-1.9,1-3,1.2c-1.1,0.3-2.4,0.4-3.7,0.4L1200.6,722
					L1200.6,722z"/>
				<path d="M1217.3,692.4v-3.3h4.1v3.3H1217.3z M1217.4,721.5v-23h3.7v23H1217.4z"/>
				<path d="M1233.1,730c-1.1,0-2-0.3-2.9-0.8s-1.5-1.2-2-2.1c-0.5-0.9-0.7-1.8-0.7-2.8c0-1.1,0.3-2.1,0.9-3s1.4-1.6,2.4-2.1
					c-0.7-0.4-1.2-1-1.5-1.6s-0.5-1.4-0.5-2.1c0-1.1,0.3-2,1-2.8s1.6-1.4,2.7-1.8c-0.9-0.6-1.7-1.4-2.2-2.3c-0.6-0.9-0.8-1.9-0.8-3
					c0-1.3,0.3-2.5,1-3.7s1.7-2.1,3-2.8s3-1.1,5.1-1.1c1,0,1.9,0.1,2.7,0.2c0.8,0.1,1.5,0.4,2.2,0.7c1.1-0.4,2-1,2.7-1.8
					s1.1-1.7,1.1-2.7h3.2c0,0.9-0.2,1.8-0.5,2.6c-0.4,0.8-0.9,1.5-1.6,2.1s-1.5,0.9-2.4,1.1v0.1c0.7,0.6,1.2,1.3,1.6,2.1
					s0.6,1.7,0.6,2.7c0,1.3-0.3,2.5-1,3.6s-1.6,2-3,2.7c-1.3,0.7-2.9,1-4.9,1h-3.6c-0.9,0-1.7,0.2-2.3,0.7c-0.6,0.5-0.9,1.1-0.9,1.9
					c0,0.8,0.3,1.4,0.9,1.9s1.4,0.7,2.3,0.7h9c1.8,0,3.2,0.6,4.2,1.7c1.1,1.1,1.6,2.5,1.6,4.1c0,1.2-0.3,2.2-0.9,3.2
					s-1.4,1.7-2.4,2.3s-2.2,0.9-3.5,0.9h-10.6V730z M1234.1,727.3h9c1,0,1.8-0.3,2.5-1s1.1-1.5,1.1-2.5c0-0.8-0.3-1.5-0.9-2.1
					s-1.3-0.9-2.1-0.9h-9.6c-0.9,0-1.7,0.3-2.3,1c-0.6,0.6-1,1.4-1,2.3c0,0.9,0.3,1.6,1,2.3C1232.4,727,1233.2,727.3,1234.1,727.3z
					 M1238.6,710c1.8,0,3.2-0.5,4.2-1.4s1.5-2,1.5-3.3s-0.5-2.4-1.5-3.3c-1-0.9-2.4-1.4-4.2-1.4c-1.8,0-3.2,0.5-4.2,1.4
					s-1.5,2-1.5,3.3s0.5,2.4,1.5,3.3C1235.3,709.5,1236.7,710,1238.6,710z"/>
				<path d="M1255,721.5v-23h2.7l0.6,3.4c0.8-1.3,1.9-2.2,3.3-2.9s2.8-1,4.3-1c1.6,0,3,0.3,4.2,0.9c1.2,0.6,2.2,1.5,2.9,2.7
					c0.7,1.2,1.1,2.7,1.1,4.6v15.2h-3.7v-14.6c0-2.1-0.5-3.6-1.4-4.5c-1-0.9-2.3-1.4-4.1-1.4c-1.1,0-2.2,0.3-3.1,0.8
					s-1.6,1.3-2.2,2.2c-0.5,0.9-0.8,2-0.8,3.2v14.2h-3.8V721.5z"/>
				<path d="M1292.2,729.7v-31.2h2.7l0.6,3.3c0.8-1.2,1.8-2.1,3-2.8c1.2-0.6,2.7-1,4.3-1c1.7,0,3.3,0.4,4.7,1.2
					c1.4,0.8,2.5,2,3.3,3.8c0.8,1.7,1.2,4,1.2,6.8v0.7c0,2.5-0.4,4.5-1.2,6.3c-0.8,1.7-1.9,3-3.3,3.9s-2.9,1.3-4.6,1.3
					c-1.6,0-3-0.3-4.2-1s-2.1-1.5-2.8-2.5v11.2H1292.2z M1302.1,719.1c1.1,0,2.2-0.3,3.1-0.9c0.9-0.6,1.6-1.4,2.2-2.6
					c0.5-1.2,0.8-2.7,0.8-4.5v-1.8c0-2.1-0.3-3.7-0.8-5c-0.5-1.2-1.3-2.1-2.2-2.7c-0.9-0.6-1.9-0.8-3.1-0.8c-1.1,0-2.1,0.3-3.1,0.8
					c-0.9,0.5-1.7,1.4-2.3,2.7c-0.6,1.2-0.9,2.9-0.9,5v1.8c0,1.8,0.3,3.3,0.8,4.5c0.6,1.2,1.3,2,2.3,2.6
					C1299.9,718.8,1300.9,719.1,1302.1,719.1z"/>
				<path d="M1318.6,721.5v-23h2.7l0.6,3.4c0-0.1,0.2-0.3,0.4-0.7c0.2-0.4,0.6-0.8,1.1-1.3s1.1-0.9,2-1.3c0.8-0.4,1.8-0.6,3-0.6
					c1.6,0,3,0.3,4,1s1.8,1.6,2.3,2.7c0.5,1.1,0.8,2.4,0.8,3.8c0,0.3,0,0.6,0,0.9c0,0.3,0,0.5,0,0.6h-3.2v-0.8
					c0-0.7-0.1-1.5-0.4-2.3s-0.8-1.4-1.5-2s-1.7-0.8-2.9-0.8c-0.9,0-1.7,0.2-2.4,0.6c-0.6,0.4-1.2,0.9-1.5,1.5
					c-0.4,0.6-0.6,1.2-0.8,1.9c-0.2,0.7-0.2,1.3-0.2,1.8v14.6L1318.6,721.5L1318.6,721.5z"/>
				<path d="M1349.7,722c-2,0-3.7-0.5-5.2-1.4s-2.7-2.2-3.6-4c-0.9-1.7-1.3-3.8-1.3-6.3v-0.7c0-2.5,0.4-4.6,1.3-6.3s2.1-3,3.6-4
					c1.5-0.9,3.3-1.4,5.2-1.4h0.4c2,0,3.7,0.5,5.2,1.4s2.7,2.2,3.6,4c0.9,1.7,1.3,3.8,1.3,6.3v0.7c0,2.4-0.4,4.5-1.3,6.3
					c-0.9,1.7-2.1,3.1-3.6,4s-3.3,1.4-5.2,1.4H1349.7z M1349.9,719.2c1.2,0,2.3-0.3,3.3-0.9s1.7-1.5,2.3-2.7
					c0.6-1.2,0.9-2.7,0.9-4.4v-2.4c0-1.8-0.3-3.3-0.9-4.4c-0.6-1.2-1.3-2.1-2.3-2.7c-1-0.6-2.1-0.9-3.3-0.9c-1.2,0-2.3,0.3-3.3,0.9
					c-1,0.6-1.8,1.5-2.3,2.7c-0.6,1.2-0.9,2.7-0.9,4.4v2.4c0,1.7,0.3,3.2,0.9,4.4s1.4,2.1,2.3,2.7S1348.7,719.2,1349.9,719.2z"/>
				<path d="M1367.9,721.5v-20h-2.6v-3h2.6v-4.4c0-1.9,0.5-3.3,1.5-4.1c1-0.9,2.3-1.3,3.9-1.3c0.4,0,0.9,0,1.3,0.1
					c0.5,0.1,0.9,0.2,1.3,0.3s0.8,0.2,1.1,0.4v2.7c-0.4-0.1-0.8-0.3-1.4-0.4c-0.6-0.1-1-0.2-1.4-0.2s-0.8,0.1-1.2,0.2
					c-0.4,0.1-0.7,0.4-1,0.8s-0.4,1.1-0.4,2v4h5.4v3h-5.4v20L1367.9,721.5L1367.9,721.5z"/>
				<path d="M1391.9,722c-2,0-3.7-0.5-5.2-1.4s-2.7-2.2-3.5-3.9s-1.3-3.8-1.3-6.2v-0.9c0-2.5,0.4-4.5,1.3-6.3c0.9-1.7,2.1-3,3.6-3.9
					s3.3-1.4,5.3-1.4h0.4c1.8,0,3.4,0.4,4.8,1.1c1.4,0.8,2.5,1.8,3.3,3.3s1.2,3.2,1.2,5.1v2.8h-16c0,1.9,0.3,3.4,0.8,4.8
					s1.2,2.3,2.2,3s2.1,1,3.5,1c1.1,0,2.1-0.2,3-0.7s1.6-1.1,2.2-2c0.5-0.9,0.8-2.1,0.8-3.4h3.6c0,1.8-0.4,3.4-1.3,4.8
					c-0.9,1.4-2,2.4-3.4,3.1c-1.4,0.7-3,1.1-4.8,1.1L1391.9,722L1391.9,722z M1385.8,708h12.3c0-2.4-0.5-4.2-1.6-5.4
					s-2.5-1.8-4.4-1.8c-1.7,0-3.2,0.6-4.4,1.8S1385.9,705.6,1385.8,708z"/>
				<path d="M1416.2,722c-1.7,0-3.1-0.2-4.2-0.6c-1.2-0.4-2.1-0.9-2.9-1.6c-0.8-0.7-1.3-1.4-1.6-2.1c-0.3-0.8-0.5-1.5-0.5-2.2
					c0-0.2,0-0.3,0-0.5c0-0.1,0-0.3,0-0.6h3.3c0,0.1,0,0.2,0,0.3s0,0.2,0,0.2c0,0.9,0.3,1.7,0.9,2.3s1.4,1.1,2.4,1.4
					c1,0.3,2.1,0.5,3.5,0.5c1.2,0,2.2-0.2,3.1-0.5s1.6-0.8,2.1-1.3c0.5-0.6,0.8-1.2,0.8-2c0-0.9-0.3-1.6-0.8-2.1s-1.3-0.9-2.2-1.2
					c-0.9-0.3-1.9-0.5-3-0.7s-2.2-0.4-3.3-0.7c-1.1-0.3-2.1-0.6-3-1s-1.6-1-2.2-1.8s-0.8-1.8-0.8-3.1c0-1,0.2-1.9,0.6-2.7
					s1-1.5,1.8-2.1s1.8-1,2.9-1.4c1.1-0.3,2.4-0.5,3.9-0.5h0.5c1.4,0,2.6,0.2,3.7,0.5c1.1,0.4,2,0.8,2.7,1.4c0.7,0.6,1.3,1.3,1.7,2
					c0.4,0.7,0.6,1.5,0.6,2.2c0,0.1,0,0.3,0,0.4c0,0.2,0,0.3,0,0.3h-3.4v-0.5c0-0.3-0.1-0.6-0.2-1s-0.4-0.8-0.8-1.2s-1-0.7-1.7-1
					s-1.8-0.4-3.1-0.4c-1.2,0-2.1,0.1-2.9,0.4c-0.8,0.3-1.3,0.6-1.7,0.9c-0.4,0.4-0.6,0.8-0.8,1.1c-0.1,0.4-0.2,0.7-0.2,1
					c0,0.8,0.3,1.4,0.8,1.9s1.3,0.8,2.2,1.1c0.9,0.3,1.9,0.5,3,0.7s2.2,0.4,3.3,0.7c1.1,0.3,2.1,0.6,3,1.1s1.6,1.1,2.2,1.9
					c0.5,0.8,0.8,1.8,0.8,3.1s-0.2,2.4-0.7,3.4c-0.5,0.9-1.2,1.7-2.1,2.3s-1.9,1-3,1.2c-1.1,0.3-2.4,0.4-3.7,0.4L1416.2,722
					L1416.2,722z"/>
				<path d="M1440.5,722c-1.7,0-3.1-0.2-4.2-0.6c-1.2-0.4-2.1-0.9-2.9-1.6c-0.8-0.7-1.3-1.4-1.6-2.1c-0.3-0.8-0.5-1.5-0.5-2.2
					c0-0.2,0-0.3,0-0.5c0-0.1,0-0.3,0-0.6h3.3c0,0.1,0,0.2,0,0.3s0,0.2,0,0.2c0,0.9,0.3,1.7,0.9,2.3s1.4,1.1,2.4,1.4
					c1,0.3,2.1,0.5,3.5,0.5c1.2,0,2.2-0.2,3.1-0.5s1.6-0.8,2.1-1.3c0.5-0.6,0.8-1.2,0.8-2c0-0.9-0.3-1.6-0.8-2.1s-1.3-0.9-2.2-1.2
					c-0.9-0.3-1.9-0.5-3-0.7s-2.2-0.4-3.3-0.7c-1.1-0.3-2.1-0.6-3-1s-1.6-1-2.2-1.8s-0.8-1.8-0.8-3.1c0-1,0.2-1.9,0.6-2.7
					s1-1.5,1.8-2.1s1.8-1,2.9-1.4c1.1-0.3,2.4-0.5,3.9-0.5h0.5c1.4,0,2.6,0.2,3.7,0.5c1.1,0.4,2,0.8,2.7,1.4c0.7,0.6,1.3,1.3,1.7,2
					c0.4,0.7,0.6,1.5,0.6,2.2c0,0.1,0,0.3,0,0.4c0,0.2,0,0.3,0,0.3h-3.4v-0.5c0-0.3-0.1-0.6-0.2-1s-0.4-0.8-0.8-1.2s-1-0.7-1.7-1
					s-1.8-0.4-3.1-0.4c-1.2,0-2.1,0.1-2.9,0.4c-0.8,0.3-1.3,0.6-1.7,0.9c-0.4,0.4-0.6,0.8-0.8,1.1c-0.1,0.4-0.2,0.7-0.2,1
					c0,0.8,0.3,1.4,0.8,1.9s1.3,0.8,2.2,1.1c0.9,0.3,1.9,0.5,3,0.7s2.2,0.4,3.3,0.7c1.1,0.3,2.1,0.6,3,1.1s1.6,1.1,2.2,1.9
					c0.5,0.8,0.8,1.8,0.8,3.1s-0.2,2.4-0.7,3.4c-0.5,0.9-1.2,1.7-2.1,2.3s-1.9,1-3,1.2c-1.1,0.3-2.4,0.4-3.7,0.4L1440.5,722
					L1440.5,722z"/>
				<path d="M1457.2,692.4v-3.3h4.1v3.3H1457.2z M1457.3,721.5v-23h3.7v23H1457.3z"/>
				<path d="M1478.2,722c-2,0-3.7-0.5-5.2-1.4s-2.7-2.2-3.6-4c-0.9-1.7-1.3-3.8-1.3-6.3v-0.7c0-2.5,0.4-4.6,1.3-6.3s2.1-3,3.6-4
					c1.5-0.9,3.3-1.4,5.2-1.4h0.4c2,0,3.7,0.5,5.2,1.4s2.7,2.2,3.6,4c0.9,1.7,1.3,3.8,1.3,6.3v0.7c0,2.4-0.4,4.5-1.3,6.3
					c-0.9,1.7-2.1,3.1-3.6,4s-3.3,1.4-5.2,1.4H1478.2z M1478.4,719.2c1.2,0,2.3-0.3,3.3-0.9s1.7-1.5,2.3-2.7
					c0.6-1.2,0.9-2.7,0.9-4.4v-2.4c0-1.8-0.3-3.3-0.9-4.4c-0.6-1.2-1.3-2.1-2.3-2.7c-1-0.6-2.1-0.9-3.3-0.9c-1.2,0-2.3,0.3-3.3,0.9
					c-1,0.6-1.8,1.5-2.3,2.7c-0.6,1.2-0.9,2.7-0.9,4.4v2.4c0,1.7,0.3,3.2,0.9,4.4s1.4,2.1,2.3,2.7S1477.2,719.2,1478.4,719.2z"/>
				<path d="M1495.3,721.5v-23h2.7l0.6,3.4c0.8-1.3,1.9-2.2,3.3-2.9s2.8-1,4.3-1c1.6,0,3,0.3,4.2,0.9c1.2,0.6,2.2,1.5,2.9,2.7
					c0.7,1.2,1.1,2.7,1.1,4.6v15.2h-3.7v-14.6c0-2.1-0.5-3.6-1.4-4.5c-1-0.9-2.3-1.4-4.1-1.4c-1.1,0-2.2,0.3-3.1,0.8
					s-1.6,1.3-2.2,2.2c-0.5,0.9-0.8,2-0.8,3.2v14.2h-3.8V721.5z"/>
				<path d="M1527.9,722c-1.2,0-2.4-0.2-3.5-0.6c-1.1-0.4-2-1-2.7-2c-0.7-0.9-1.1-2.2-1.1-3.9s0.4-3,1.1-4c0.8-1,1.8-1.8,3.2-2.3
					c1.4-0.5,3-0.9,4.9-1s4-0.2,6.3-0.2v-2.6c0-1.7-0.4-2.9-1.3-3.6c-0.9-0.7-2.2-1-4.1-1c-1.6,0-2.9,0.3-4,1
					c-1.1,0.6-1.7,1.7-1.7,3.2v0.6h-3.6c0-0.1-0.1-0.3-0.1-0.5s0-0.4,0-0.5c0-1.4,0.4-2.5,1.2-3.5c0.8-1,1.9-1.7,3.3-2.2
					s3-0.8,4.7-0.8h0.5c2.9,0,5.1,0.6,6.5,1.8s2.2,2.9,2.2,5.1v12.7c0,0.5,0.1,0.9,0.3,1.2c0.2,0.2,0.5,0.4,0.8,0.4s0.7-0.1,1.1-0.2
					s0.8-0.3,1.1-0.5v2.6c-0.4,0.3-0.9,0.5-1.4,0.7c-0.5,0.1-1.2,0.2-1.8,0.2c-0.9,0-1.7-0.2-2.2-0.6c-0.5-0.4-0.9-0.9-1.1-1.6
					c-0.2-0.6-0.3-1.4-0.4-2.1c-0.9,1.4-2,2.5-3.4,3.2C1531.4,721.6,1529.8,722,1527.9,722z M1529.3,719.2c1.1,0,2.2-0.3,3.2-0.8
					c1.1-0.5,1.9-1.3,2.6-2.3s1-2.3,1-3.9v-1.7c-2.4,0-4.5,0.1-6.2,0.3c-1.8,0.2-3.1,0.7-4.1,1.3c-0.9,0.7-1.4,1.7-1.4,3.2
					c0,1.4,0.4,2.3,1.2,3C1526.4,718.9,1527.6,719.2,1529.3,719.2z"/>
				<path d="M1548.8,721.5v-32.4h3.7v32.4H1548.8z"/>
				<path d="M1575.8,721.5l-7.7-23h3.9l5.6,17.3h0.2l5.7-17.3h4.1l5.7,17.3h0.2l5.7-17.3h3.6l-7.7,23h-3.6l-5.9-17.7h-0.1l-5.9,17.7
					H1575.8z"/>
				<path d="M1608.1,692.4v-3.3h4.1v3.3H1608.1z M1608.2,721.5v-23h3.7v23H1608.2z"/>
				<path d="M1626.2,722c-1,0-1.9-0.2-2.8-0.5c-0.8-0.3-1.5-0.9-1.9-1.7c-0.5-0.8-0.7-1.8-0.7-3.1v-15.2h-2.5v-3h2.6l1.3-7.3h2.4
					v7.3h5.4v3h-5.4v14.6c0,1.3,0.3,2.2,0.8,2.5c0.5,0.4,1.1,0.5,1.8,0.5c0.3,0,0.8-0.1,1.4-0.2s1.1-0.3,1.4-0.5v2.7
					c-0.3,0.2-0.7,0.3-1.1,0.5c-0.4,0.1-0.9,0.2-1.3,0.3C1627,721.9,1626.6,722,1626.2,722z"/>
				<path d="M1636.2,721.5v-32.4h3.7v12.6c0.8-1.2,1.9-2.1,3.2-2.7c1.3-0.6,2.7-0.9,4-0.9c1.6,0,3,0.3,4.2,0.9
					c1.2,0.6,2.2,1.5,2.9,2.7c0.7,1.2,1.1,2.7,1.1,4.6v15.2h-3.7v-14.6c0-2.1-0.5-3.6-1.5-4.5s-2.3-1.4-4.1-1.4
					c-1.1,0-2.2,0.3-3.1,0.8s-1.6,1.3-2.2,2.2c-0.5,0.9-0.8,2-0.8,3.2v14.2h-3.7V721.5z"/>
				<path d="M1682.7,722c-2,0-3.7-0.5-5.2-1.4s-2.7-2.2-3.6-4c-0.9-1.7-1.3-3.8-1.3-6.3v-0.7c0-2.5,0.4-4.6,1.3-6.3s2.1-3,3.6-4
					c1.5-0.9,3.3-1.4,5.2-1.4h0.4c2,0,3.7,0.5,5.2,1.4s2.7,2.2,3.6,4c0.9,1.7,1.3,3.8,1.3,6.3v0.7c0,2.4-0.4,4.5-1.3,6.3
					c-0.9,1.7-2.1,3.1-3.6,4s-3.3,1.4-5.2,1.4H1682.7z M1682.9,719.2c1.2,0,2.3-0.3,3.3-0.9s1.7-1.5,2.3-2.7
					c0.6-1.2,0.9-2.7,0.9-4.4v-2.4c0-1.8-0.3-3.3-0.9-4.4c-0.6-1.2-1.3-2.1-2.3-2.7c-1-0.6-2.1-0.9-3.3-0.9c-1.2,0-2.3,0.3-3.3,0.9
					c-1,0.6-1.8,1.5-2.3,2.7c-0.6,1.2-0.9,2.7-0.9,4.4v2.4c0,1.7,0.3,3.2,0.9,4.4s1.4,2.1,2.3,2.7S1681.7,719.2,1682.9,719.2z"/>
				<path d="M1705.9,721.5l-8.9-23h4l6.9,18.2h0.1l6.9-18.2h3.6l-8.9,23H1705.9z"/>
				<path d="M1732.4,722c-2,0-3.7-0.5-5.2-1.4s-2.7-2.2-3.5-3.9s-1.3-3.8-1.3-6.2v-0.9c0-2.5,0.4-4.5,1.3-6.3c0.9-1.7,2.1-3,3.6-3.9
					s3.3-1.4,5.3-1.4h0.4c1.8,0,3.4,0.4,4.8,1.1c1.4,0.8,2.5,1.8,3.3,3.3s1.2,3.2,1.2,5.1v2.8h-16c0,1.9,0.3,3.4,0.8,4.8
					s1.2,2.3,2.2,3s2.1,1,3.5,1c1.1,0,2.1-0.2,3-0.7s1.6-1.1,2.2-2c0.5-0.9,0.8-2.1,0.8-3.4h3.6c0,1.8-0.4,3.4-1.3,4.8
					c-0.9,1.4-2,2.4-3.4,3.1c-1.4,0.7-3,1.1-4.8,1.1L1732.4,722L1732.4,722z M1726.2,708h12.3c0-2.4-0.5-4.2-1.6-5.4
					s-2.5-1.8-4.4-1.8c-1.7,0-3.2,0.6-4.4,1.8C1727,703.8,1726.4,705.6,1726.2,708z"/>
				<path d="M1748.8,721.5v-23h2.7l0.6,3.4c0-0.1,0.2-0.3,0.4-0.7c0.2-0.4,0.6-0.8,1.1-1.3s1.1-0.9,2-1.3c0.8-0.4,1.8-0.6,3-0.6
					c1.6,0,3,0.3,4,1s1.8,1.6,2.3,2.7c0.5,1.1,0.8,2.4,0.8,3.8c0,0.3,0,0.6,0,0.9c0,0.3,0,0.5,0,0.6h-3.2v-0.8
					c0-0.7-0.1-1.5-0.4-2.3s-0.8-1.4-1.5-2s-1.7-0.8-2.9-0.8c-0.9,0-1.7,0.2-2.4,0.6c-0.6,0.4-1.2,0.9-1.5,1.5
					c-0.4,0.6-0.6,1.2-0.8,1.9c-0.2,0.7-0.2,1.3-0.2,1.8v14.6L1748.8,721.5L1748.8,721.5z"/>
				<path d="M1787.1,722c-1.2,0-2.4-0.2-3.5-0.6c-1.1-0.4-2-1-2.7-2c-0.7-0.9-1.1-2.2-1.1-3.9s0.4-3,1.1-4c0.8-1,1.8-1.8,3.2-2.3
					c1.4-0.5,3-0.9,4.9-1s4-0.2,6.3-0.2v-2.6c0-1.7-0.4-2.9-1.3-3.6c-0.9-0.7-2.2-1-4.1-1c-1.6,0-2.9,0.3-4,1
					c-1.1,0.6-1.7,1.7-1.7,3.2v0.6h-3.6c0-0.1-0.1-0.3-0.1-0.5s0-0.4,0-0.5c0-1.4,0.4-2.5,1.2-3.5c0.8-1,1.9-1.7,3.3-2.2
					s3-0.8,4.7-0.8h0.5c2.9,0,5.1,0.6,6.5,1.8s2.2,2.9,2.2,5.1v12.7c0,0.5,0.1,0.9,0.3,1.2c0.2,0.2,0.5,0.4,0.8,0.4s0.7-0.1,1.1-0.2
					s0.8-0.3,1.1-0.5v2.6c-0.4,0.3-0.9,0.5-1.4,0.7c-0.5,0.1-1.2,0.2-1.8,0.2c-0.9,0-1.7-0.2-2.2-0.6c-0.5-0.4-0.9-0.9-1.1-1.6
					c-0.2-0.6-0.3-1.4-0.4-2.1c-0.9,1.4-2,2.5-3.4,3.2C1790.6,721.6,1788.9,722,1787.1,722z M1788.4,719.2c1.1,0,2.2-0.3,3.2-0.8
					c1.1-0.5,1.9-1.3,2.6-2.3s1-2.3,1-3.9v-1.7c-2.4,0-4.5,0.1-6.2,0.3c-1.8,0.2-3.1,0.7-4.1,1.3c-0.9,0.7-1.4,1.7-1.4,3.2
					c0,1.4,0.4,2.3,1.2,3C1785.6,718.9,1786.8,719.2,1788.4,719.2z"/>
				<path d="M1826.9,722c-1.7,0-3.3-0.4-4.7-1.2c-1.4-0.8-2.5-2.1-3.4-3.9c-0.9-1.8-1.3-4-1.3-6.8v-0.5c0-2.5,0.4-4.6,1.2-6.3
					c0.8-1.7,1.9-3,3.3-3.9s2.9-1.3,4.5-1.3s3,0.3,4.2,0.9c1.2,0.6,2.1,1.5,2.8,2.5v-12.4h3.7v32.4h-2.8l-0.5-3.3
					c-0.8,1.2-1.8,2.1-3,2.8S1828.5,722,1826.9,722z M1827.4,719.2c1.1,0,2.2-0.3,3.1-0.8s1.7-1.4,2.3-2.7c0.6-1.2,0.9-2.9,0.9-5
					v-1.8c0-1.8-0.3-3.3-0.8-4.5c-0.6-1.2-1.3-2-2.2-2.6c-0.9-0.6-2-0.9-3.2-0.9c-1.7,0-3.1,0.7-4.3,2c-1.2,1.4-1.8,3.4-1.8,6.1v1.8
					c0,2.1,0.3,3.8,0.8,5s1.3,2.1,2.2,2.6C1825.3,718.9,1826.3,719.2,1827.4,719.2z"/>
				<path d="M1854,722c-2,0-3.7-0.5-5.2-1.4s-2.7-2.2-3.5-3.9s-1.3-3.8-1.3-6.2v-0.9c0-2.5,0.4-4.5,1.3-6.3c0.9-1.7,2.1-3,3.6-3.9
					s3.3-1.4,5.3-1.4h0.4c1.8,0,3.4,0.4,4.8,1.1c1.4,0.8,2.5,1.8,3.3,3.3s1.2,3.2,1.2,5.1v2.8h-16c0,1.9,0.3,3.4,0.8,4.8
					s1.2,2.3,2.2,3s2.1,1,3.5,1c1.1,0,2.1-0.2,3-0.7s1.6-1.1,2.2-2c0.5-0.9,0.8-2.1,0.8-3.4h3.6c0,1.8-0.4,3.4-1.3,4.8
					c-0.9,1.4-2,2.4-3.4,3.1c-1.4,0.7-3,1.1-4.8,1.1L1854,722L1854,722z M1847.8,708h12.3c0-2.4-0.5-4.2-1.6-5.4s-2.5-1.8-4.4-1.8
					c-1.7,0-3.2,0.6-4.4,1.8C1848.6,703.8,1848,705.6,1847.8,708z"/>
				<path d="M1879.2,722c-1.9,0-3.6-0.5-5-1.4c-1.5-0.9-2.6-2.3-3.5-4c-0.8-1.7-1.3-3.8-1.3-6.1v-0.9c0-1.8,0.3-3.4,0.8-4.8
					c0.5-1.4,1.2-2.6,2.1-3.6s2-1.8,3.2-2.3s2.5-0.8,3.9-0.8h0.4c1.8,0,3.4,0.4,4.8,1.1c1.4,0.8,2.5,1.8,3.3,3.2s1.2,3.1,1.2,5.1
					h-3.4c0-1.5-0.3-2.7-0.8-3.7s-1.2-1.7-2.1-2.2s-1.9-0.7-3-0.7c-1.8,0-3.4,0.6-4.6,1.9c-1.2,1.3-1.8,3.3-1.8,5.9v2.6
					c0,2.6,0.6,4.6,1.8,5.9c1.2,1.3,2.8,2,4.6,2c1.1,0,2.2-0.2,3.1-0.7s1.6-1.2,2.2-2.2c0.5-1,0.8-2.2,0.8-3.8h3.3
					c0,2-0.4,3.7-1.3,5.1c-0.8,1.4-2,2.5-3.4,3.2s-3,1.1-4.8,1.1h-0.5V722z"/>
				<path d="M1901.1,722c-1.2,0-2.4-0.2-3.5-0.6c-1.1-0.4-2-1-2.7-2c-0.7-0.9-1.1-2.2-1.1-3.9s0.4-3,1.1-4c0.8-1,1.8-1.8,3.2-2.3
					c1.4-0.5,3-0.9,4.9-1s4-0.2,6.3-0.2v-2.6c0-1.7-0.4-2.9-1.3-3.6c-0.9-0.7-2.2-1-4.1-1c-1.6,0-2.9,0.3-4,1
					c-1.1,0.6-1.7,1.7-1.7,3.2v0.6h-3.6c0-0.1-0.1-0.3-0.1-0.5s0-0.4,0-0.5c0-1.4,0.4-2.5,1.2-3.5c0.8-1,1.9-1.7,3.3-2.2
					s3-0.8,4.7-0.8h0.5c2.9,0,5.1,0.6,6.5,1.8s2.2,2.9,2.2,5.1v12.7c0,0.5,0.1,0.9,0.3,1.2c0.2,0.2,0.5,0.4,0.8,0.4s0.7-0.1,1.1-0.2
					s0.8-0.3,1.1-0.5v2.6c-0.4,0.3-0.9,0.5-1.4,0.7c-0.5,0.1-1.2,0.2-1.8,0.2c-0.9,0-1.7-0.2-2.2-0.6c-0.5-0.4-0.9-0.9-1.1-1.6
					c-0.2-0.6-0.3-1.4-0.4-2.1c-0.9,1.4-2,2.5-3.4,3.2C1904.6,721.6,1903,722,1901.1,722z M1902.5,719.2c1.1,0,2.2-0.3,3.2-0.8
					c1.1-0.5,1.9-1.3,2.6-2.3s1-2.3,1-3.9v-1.7c-2.4,0-4.5,0.1-6.2,0.3c-1.8,0.2-3.1,0.7-4.1,1.3c-0.9,0.7-1.4,1.7-1.4,3.2
					c0,1.4,0.4,2.3,1.2,3C1899.6,718.9,1900.8,719.2,1902.5,719.2z"/>
				<path d="M1930.4,722c-1.7,0-3.3-0.4-4.7-1.2c-1.4-0.8-2.5-2.1-3.4-3.9c-0.9-1.8-1.3-4-1.3-6.8v-0.5c0-2.5,0.4-4.6,1.2-6.3
					c0.8-1.7,1.9-3,3.3-3.9s2.9-1.3,4.5-1.3s3,0.3,4.2,0.9c1.2,0.6,2.1,1.5,2.8,2.5v-12.4h3.7v32.4h-2.8l-0.5-3.3
					c-0.8,1.2-1.8,2.1-3,2.8S1932,722,1930.4,722z M1931,719.2c1.1,0,2.2-0.3,3.1-0.8s1.7-1.4,2.3-2.7c0.6-1.2,0.9-2.9,0.9-5v-1.8
					c0-1.8-0.3-3.3-0.8-4.5c-0.6-1.2-1.3-2-2.2-2.6c-0.9-0.6-2-0.9-3.2-0.9c-1.7,0-3.1,0.7-4.3,2c-1.2,1.4-1.8,3.4-1.8,6.1v1.8
					c0,2.1,0.3,3.8,0.8,5s1.3,2.1,2.2,2.6C1928.9,718.9,1929.9,719.2,1931,719.2z"/>
				<path d="M1957.5,722c-2,0-3.7-0.5-5.2-1.4s-2.7-2.2-3.5-3.9s-1.3-3.8-1.3-6.2v-0.9c0-2.5,0.4-4.5,1.3-6.3c0.9-1.7,2.1-3,3.6-3.9
					s3.3-1.4,5.3-1.4h0.4c1.8,0,3.4,0.4,4.8,1.1c1.4,0.8,2.5,1.8,3.3,3.3s1.2,3.2,1.2,5.1v2.8h-16c0,1.9,0.3,3.4,0.8,4.8
					s1.2,2.3,2.2,3s2.1,1,3.5,1c1.1,0,2.1-0.2,3-0.7s1.6-1.1,2.2-2c0.5-0.9,0.8-2.1,0.8-3.4h3.6c0,1.8-0.4,3.4-1.3,4.8
					c-0.9,1.4-2,2.4-3.4,3.1c-1.4,0.7-3,1.1-4.8,1.1L1957.5,722L1957.5,722z M1951.4,708h12.3c0-2.4-0.5-4.2-1.6-5.4
					s-2.5-1.8-4.4-1.8c-1.7,0-3.2,0.6-4.4,1.8C1952.2,703.8,1951.5,705.6,1951.4,708z"/>
				<path d="M1984.8,692.4v-3.3h4.1v3.3H1984.8z M1984.9,721.5v-23h3.7v23H1984.9z"/>
				<path d="M1996.6,721.5v-23h2.7l0.6,3.4c0.8-1.3,1.9-2.2,3.3-2.9c1.4-0.7,2.8-1,4.3-1c1.6,0,3,0.3,4.2,0.9
					c1.2,0.6,2.2,1.5,2.9,2.7s1.1,2.7,1.1,4.6v15.2h-3.7v-14.6c0-2.1-0.5-3.6-1.4-4.5c-1-0.9-2.3-1.4-4.1-1.4
					c-1.1,0-2.2,0.3-3.1,0.8s-1.6,1.3-2.2,2.2c-0.5,0.9-0.8,2-0.8,3.2v14.2h-3.8V721.5z"/>
				<path d="M2050.6,722c-1,0-1.9-0.2-2.8-0.5c-0.8-0.3-1.5-0.9-1.9-1.7c-0.5-0.8-0.7-1.8-0.7-3.1v-15.2h-2.5v-3h2.6l1.3-7.3h2.4
					v7.3h5.4v3h-5.4v14.6c0,1.3,0.3,2.2,0.8,2.5c0.5,0.4,1.1,0.5,1.8,0.5c0.3,0,0.8-0.1,1.4-0.2s1.1-0.3,1.4-0.5v2.7
					c-0.3,0.2-0.7,0.3-1.1,0.5c-0.4,0.1-0.9,0.2-1.3,0.3C2051.4,721.9,2051,722,2050.6,722z"/>
				<path d="M2060.7,721.5v-32.4h3.7v12.6c0.8-1.2,1.9-2.1,3.2-2.7c1.3-0.6,2.7-0.9,4-0.9c1.6,0,3,0.3,4.2,0.9
					c1.2,0.6,2.2,1.5,2.9,2.7s1.1,2.7,1.1,4.6v15.2h-3.7v-14.6c0-2.1-0.5-3.6-1.5-4.5s-2.3-1.4-4.1-1.4c-1.1,0-2.2,0.3-3.1,0.8
					s-1.6,1.3-2.2,2.2c-0.5,0.9-0.8,2-0.8,3.2v14.2h-3.7V721.5z"/>
				<path d="M2096.5,722c-2,0-3.7-0.5-5.2-1.4s-2.7-2.2-3.5-3.9s-1.3-3.8-1.3-6.2v-0.9c0-2.5,0.4-4.5,1.3-6.3c0.9-1.7,2.1-3,3.6-3.9
					s3.3-1.4,5.3-1.4h0.4c1.8,0,3.4,0.4,4.8,1.1c1.4,0.8,2.5,1.8,3.3,3.3s1.2,3.2,1.2,5.1v2.8h-16c0,1.9,0.3,3.4,0.8,4.8
					s1.2,2.3,2.2,3s2.1,1,3.5,1c1.1,0,2.1-0.2,3-0.7s1.6-1.1,2.2-2c0.5-0.9,0.8-2.1,0.8-3.4h3.6c0,1.8-0.4,3.4-1.3,4.8
					c-0.9,1.4-2,2.4-3.4,3.1c-1.4,0.7-3,1.1-4.8,1.1L2096.5,722L2096.5,722z M2090.4,708h12.3c0-2.4-0.5-4.2-1.6-5.4
					s-2.5-1.8-4.4-1.8c-1.7,0-3.2,0.6-4.4,1.8S2090.5,705.6,2090.4,708z"/>
				<path d="M2129.5,721.5l-8.9-23h4l6.9,18.2h0.1l6.9-18.2h3.6l-8.9,23H2129.5z"/>
				<path d="M2147.2,692.4v-3.3h4.1v3.3H2147.2z M2147.4,721.5v-23h3.7v23H2147.4z"/>
				<path d="M2166.9,722c-1.7,0-3.1-0.2-4.2-0.6c-1.2-0.4-2.1-0.9-2.9-1.6c-0.8-0.7-1.3-1.4-1.6-2.1c-0.3-0.8-0.5-1.5-0.5-2.2
					c0-0.2,0-0.3,0-0.5c0-0.1,0-0.3,0-0.6h3.3c0,0.1,0,0.2,0,0.3s0,0.2,0,0.2c0,0.9,0.3,1.7,0.9,2.3c0.6,0.6,1.4,1.1,2.4,1.4
					c1,0.3,2.1,0.5,3.5,0.5c1.2,0,2.2-0.2,3.1-0.5c0.9-0.3,1.6-0.8,2.1-1.3c0.5-0.6,0.8-1.2,0.8-2c0-0.9-0.3-1.6-0.8-2.1
					s-1.3-0.9-2.2-1.2s-1.9-0.5-3-0.7s-2.2-0.4-3.3-0.7s-2.1-0.6-3-1s-1.6-1-2.2-1.8c-0.6-0.8-0.8-1.8-0.8-3.1c0-1,0.2-1.9,0.6-2.7
					c0.4-0.8,1-1.5,1.8-2.1s1.8-1,2.9-1.4c1.1-0.3,2.4-0.5,3.9-0.5h0.5c1.4,0,2.6,0.2,3.7,0.5c1.1,0.4,2,0.8,2.7,1.4
					c0.7,0.6,1.3,1.3,1.7,2s0.6,1.5,0.6,2.2c0,0.1,0,0.3,0,0.4c0,0.2,0,0.3,0,0.3h-3.4v-0.5c0-0.3-0.1-0.6-0.2-1
					c-0.1-0.4-0.4-0.8-0.8-1.2c-0.4-0.4-1-0.7-1.7-1s-1.8-0.4-3.1-0.4c-1.2,0-2.1,0.1-2.9,0.4c-0.8,0.3-1.3,0.6-1.7,0.9
					c-0.4,0.4-0.6,0.8-0.8,1.1c-0.1,0.4-0.2,0.7-0.2,1c0,0.8,0.3,1.4,0.8,1.9s1.3,0.8,2.2,1.1s1.9,0.5,3,0.7s2.2,0.4,3.3,0.7
					s2.1,0.6,3,1.1s1.6,1.1,2.2,1.9c0.5,0.8,0.8,1.8,0.8,3.1s-0.2,2.4-0.7,3.4c-0.5,0.9-1.2,1.7-2.1,2.3c-0.9,0.6-1.9,1-3,1.2
					c-1.1,0.3-2.4,0.4-3.7,0.4L2166.9,722L2166.9,722z"/>
				<path d="M2191.1,722c-2.4,0-4.3-0.7-5.7-2c-1.5-1.3-2.2-3.4-2.2-6.2v-15.3h3.7v14.4c0,2.2,0.5,3.7,1.4,4.7
					c0.9,0.9,2.2,1.4,3.9,1.4c1.2,0,2.2-0.3,3.2-0.8s1.7-1.3,2.3-2.2s0.9-2,0.9-3.2v-14.2h3.7v19.1c0,0.5,0.1,0.9,0.4,1.2
					c0.2,0.2,0.5,0.4,0.9,0.4c0.3,0,0.7-0.1,1.1-0.2c0.4-0.1,0.8-0.3,1.1-0.5v2.6c-0.4,0.3-0.9,0.5-1.4,0.7
					c-0.6,0.1-1.2,0.2-1.8,0.2c-0.9,0-1.7-0.2-2.2-0.6c-0.5-0.4-0.9-0.9-1.1-1.4c-0.2-0.6-0.3-1.2-0.4-1.8c-0.8,1.2-1.9,2.1-3.3,2.8
					S2192.6,722,2191.1,722z"/>
				<path d="M2217.1,722c-1.2,0-2.4-0.2-3.5-0.6c-1.1-0.4-2-1-2.7-2c-0.7-0.9-1.1-2.2-1.1-3.9s0.4-3,1.1-4c0.8-1,1.8-1.8,3.2-2.3
					s3-0.9,4.9-1s4-0.2,6.3-0.2v-2.6c0-1.7-0.4-2.9-1.3-3.6c-0.9-0.7-2.2-1-4.1-1c-1.6,0-2.9,0.3-4,1c-1.1,0.6-1.7,1.7-1.7,3.2v0.6
					h-3.6c0-0.1-0.1-0.3-0.1-0.5s0-0.4,0-0.5c0-1.4,0.4-2.5,1.2-3.5s1.9-1.7,3.3-2.2c1.4-0.5,3-0.8,4.7-0.8h0.5
					c2.9,0,5.1,0.6,6.5,1.8s2.2,2.9,2.2,5.1v12.7c0,0.5,0.1,0.9,0.3,1.2c0.2,0.2,0.5,0.4,0.8,0.4s0.7-0.1,1.1-0.2s0.8-0.3,1.1-0.5
					v2.6c-0.4,0.3-0.9,0.5-1.4,0.7c-0.5,0.1-1.2,0.2-1.8,0.2c-0.9,0-1.7-0.2-2.2-0.6c-0.5-0.4-0.9-0.9-1.1-1.6
					c-0.2-0.6-0.3-1.4-0.4-2.1c-0.9,1.4-2,2.5-3.4,3.2C2220.6,721.6,2219,722,2217.1,722z M2218.5,719.2c1.1,0,2.2-0.3,3.2-0.8
					c1.1-0.5,1.9-1.3,2.6-2.3s1-2.3,1-3.9v-1.7c-2.4,0-4.5,0.1-6.2,0.3c-1.8,0.2-3.1,0.7-4.1,1.3c-0.9,0.7-1.4,1.7-1.4,3.2
					c0,1.4,0.4,2.3,1.2,3C2215.6,718.9,2216.8,719.2,2218.5,719.2z"/>
				<path d="M2238,721.5v-32.4h3.7v32.4H2238z"/>
				<path d="M641.7,776c-1.7,0-3.3-0.4-4.7-1.2s-2.5-2.1-3.4-3.9c-0.9-1.8-1.3-4-1.3-6.8v-0.5c0-2.5,0.4-4.6,1.2-6.3s1.9-3,3.3-3.9
					s2.9-1.3,4.5-1.3s3,0.3,4.2,0.9c1.2,0.6,2.1,1.5,2.8,2.5v-12.4h3.7v32.4h-2.8l-0.5-3.3c-0.8,1.2-1.8,2.1-3,2.8
					S643.3,776,641.7,776z M642.3,773.2c1.1,0,2.2-0.3,3.1-0.8c0.9-0.5,1.7-1.4,2.3-2.7c0.6-1.2,0.9-2.9,0.9-5v-1.8
					c0-1.8-0.3-3.3-0.8-4.5c-0.6-1.2-1.3-2-2.2-2.6s-2-0.9-3.2-0.9c-1.7,0-3.1,0.7-4.3,2c-1.2,1.4-1.8,3.4-1.8,6.1v1.8
					c0,2.1,0.3,3.8,0.8,5s1.3,2.1,2.2,2.6C640.1,773,641.2,773.2,642.3,773.2z"/>
				<path d="M668.8,776c-2,0-3.7-0.5-5.2-1.4s-2.7-2.2-3.5-3.9s-1.3-3.8-1.3-6.2v-0.9c0-2.5,0.4-4.5,1.3-6.3c0.9-1.7,2.1-3,3.6-3.9
					s3.3-1.4,5.3-1.4h0.4c1.8,0,3.4,0.4,4.8,1.1c1.4,0.8,2.5,1.8,3.3,3.3s1.2,3.2,1.2,5.1v2.8h-16c0,1.9,0.3,3.4,0.8,4.8
					s1.2,2.3,2.2,3s2.1,1,3.5,1c1.1,0,2.1-0.2,3-0.7s1.6-1.1,2.2-2c0.5-0.9,0.8-2.1,0.8-3.4h3.6c0,1.8-0.4,3.4-1.3,4.8
					c-0.9,1.4-2,2.4-3.4,3.1c-1.4,0.7-3,1.1-4.8,1.1L668.8,776L668.8,776z M662.7,762H675c0-2.4-0.5-4.2-1.6-5.4s-2.5-1.8-4.4-1.8
					c-1.7,0-3.2,0.6-4.4,1.8C663.5,757.9,662.8,759.6,662.7,762z"/>
				<path d="M693.1,776c-1.7,0-3.1-0.2-4.2-0.6c-1.2-0.4-2.1-0.9-2.9-1.6c-0.8-0.7-1.3-1.4-1.6-2.1c-0.3-0.8-0.5-1.5-0.5-2.2
					c0-0.2,0-0.3,0-0.5c0-0.1,0-0.3,0-0.6h3.3c0,0.1,0,0.2,0,0.3s0,0.2,0,0.2c0,0.9,0.3,1.7,0.9,2.3c0.6,0.6,1.4,1.1,2.4,1.4
					c1,0.3,2.1,0.5,3.5,0.5c1.2,0,2.2-0.2,3.1-0.5c0.9-0.3,1.6-0.8,2.1-1.3c0.5-0.6,0.8-1.2,0.8-2c0-0.9-0.3-1.6-0.8-2.1
					s-1.3-0.9-2.2-1.2s-1.9-0.5-3-0.7s-2.2-0.4-3.3-0.7s-2.1-0.6-3-1s-1.6-1-2.2-1.8c-0.6-0.8-0.8-1.8-0.8-3.1c0-1,0.2-1.9,0.6-2.7
					c0.4-0.8,1-1.5,1.8-2.1s1.8-1,2.9-1.4c1.1-0.3,2.4-0.5,3.9-0.5h0.5c1.4,0,2.6,0.2,3.7,0.5c1.1,0.4,2,0.8,2.7,1.4
					c0.7,0.6,1.3,1.3,1.7,2s0.6,1.5,0.6,2.2c0,0.1,0,0.3,0,0.4c0,0.2,0,0.3,0,0.3h-3.4v-0.5c0-0.3-0.1-0.6-0.2-1
					c-0.1-0.4-0.4-0.8-0.8-1.2c-0.4-0.4-1-0.7-1.7-1s-1.8-0.4-3.1-0.4c-1.2,0-2.1,0.1-2.9,0.4c-0.8,0.3-1.3,0.6-1.7,0.9
					c-0.4,0.4-0.6,0.8-0.8,1.1c-0.1,0.4-0.2,0.7-0.2,1c0,0.8,0.3,1.4,0.8,1.9s1.3,0.8,2.2,1.1s1.9,0.5,3,0.7s2.2,0.4,3.3,0.7
					s2.1,0.6,3,1.1s1.6,1.1,2.2,1.9c0.5,0.8,0.8,1.8,0.8,3.1s-0.2,2.4-0.7,3.4c-0.5,0.9-1.2,1.7-2.1,2.3c-0.9,0.6-1.9,1-3,1.2
					c-1.1,0.3-2.4,0.4-3.7,0.4L693.1,776L693.1,776z"/>
				<path d="M709.8,746.5v-3.3h4.1v3.3H709.8z M710,775.6v-23h3.7v23H710z"/>
				<path d="M725.6,784c-1.1,0-2-0.3-2.9-0.8s-1.5-1.2-2-2.1c-0.5-0.9-0.7-1.8-0.7-2.8c0-1.1,0.3-2.1,0.9-3s1.4-1.6,2.4-2.1
					c-0.7-0.4-1.2-1-1.5-1.6s-0.5-1.4-0.5-2.1c0-1.1,0.3-2,1-2.8s1.6-1.4,2.7-1.8c-0.9-0.6-1.7-1.4-2.2-2.3c-0.6-0.9-0.8-1.9-0.8-3
					c0-1.3,0.3-2.5,1-3.7s1.7-2.1,3-2.8s3-1.1,5.1-1.1c1,0,1.9,0.1,2.7,0.2c0.8,0.1,1.5,0.4,2.2,0.7c1.1-0.4,2-1,2.7-1.8
					s1.1-1.7,1.1-2.7h3.2c0,0.9-0.2,1.8-0.5,2.6c-0.4,0.8-0.9,1.5-1.6,2.1c-0.7,0.6-1.5,0.9-2.4,1.1v0.1c0.7,0.6,1.2,1.3,1.6,2.1
					c0.4,0.8,0.6,1.7,0.6,2.7c0,1.3-0.3,2.5-1,3.6s-1.6,2-3,2.7c-1.3,0.7-2.9,1-4.9,1H728c-0.9,0-1.7,0.2-2.3,0.7s-0.9,1.1-0.9,1.9
					c0,0.8,0.3,1.4,0.9,1.9c0.6,0.5,1.4,0.7,2.3,0.7h9c1.8,0,3.2,0.6,4.2,1.7c1.1,1.1,1.6,2.5,1.6,4.1c0,1.2-0.3,2.2-0.9,3.2
					c-0.6,1-1.4,1.7-2.4,2.3s-2.2,0.9-3.5,0.9h-10.4V784z M726.6,781.3h9c1,0,1.8-0.3,2.5-1s1.1-1.5,1.1-2.5c0-0.8-0.3-1.5-0.9-2.1
					s-1.3-0.9-2.1-0.9h-9.6c-0.9,0-1.7,0.3-2.3,1c-0.6,0.6-1,1.4-1,2.3c0,0.9,0.3,1.6,1,2.3C724.9,781,725.7,781.3,726.6,781.3z
					 M731.1,764c1.8,0,3.2-0.5,4.2-1.4s1.5-2,1.5-3.3s-0.5-2.4-1.5-3.3c-1-0.9-2.4-1.4-4.2-1.4s-3.2,0.5-4.2,1.4s-1.5,2-1.5,3.3
					s0.5,2.4,1.5,3.3C727.9,763.6,729.3,764,731.1,764z"/>
				<path d="M747.5,775.6v-23h2.7l0.6,3.4c0.8-1.3,1.9-2.2,3.3-2.9c1.4-0.7,2.8-1,4.3-1c1.6,0,3,0.3,4.2,0.9
					c1.2,0.6,2.2,1.5,2.9,2.7s1.1,2.7,1.1,4.6v15.2h-3.7V761c0-2.1-0.5-3.6-1.4-4.5c-1-0.9-2.3-1.4-4.1-1.4c-1.1,0-2.2,0.3-3.1,0.8
					s-1.6,1.3-2.2,2.2c-0.5,0.9-0.8,2-0.8,3.2v14.2L747.5,775.6L747.5,775.6z"/>
				<path d="M785.5,775.6v-20h-2.6v-3h2.6v-4.4c0-1.9,0.5-3.3,1.5-4.1c1-0.9,2.3-1.3,3.9-1.3c0.4,0,0.9,0,1.3,0.1
					c0.5,0.1,0.9,0.2,1.3,0.3c0.4,0.1,0.8,0.2,1.1,0.4v2.7c-0.3-0.1-0.8-0.3-1.4-0.4c-0.6-0.1-1.1-0.2-1.4-0.2
					c-0.4,0-0.8,0.1-1.2,0.2c-0.4,0.1-0.7,0.4-1,0.8c-0.3,0.4-0.4,1.1-0.4,2v4h5.4v3h-5.4v20L785.5,775.6L785.5,775.6z M799.3,746.5
					v-3.3h4v3.3H799.3z M799.4,775.6v-23h3.7v23H799.4z"/>
				<path d="M821.8,776c-2,0-3.7-0.5-5.2-1.4s-2.7-2.2-3.5-3.9s-1.3-3.8-1.3-6.2v-0.9c0-2.5,0.4-4.5,1.3-6.3c0.9-1.7,2.1-3,3.6-3.9
					s3.3-1.4,5.3-1.4h0.4c1.8,0,3.4,0.4,4.8,1.1c1.4,0.8,2.5,1.8,3.3,3.3s1.2,3.2,1.2,5.1v2.8h-16c0,1.9,0.3,3.4,0.8,4.8
					s1.2,2.3,2.2,3s2.1,1,3.5,1c1.1,0,2.1-0.2,3-0.7s1.6-1.1,2.2-2c0.5-0.9,0.8-2.1,0.8-3.4h3.6c0,1.8-0.4,3.4-1.3,4.8
					c-0.9,1.4-2,2.4-3.4,3.1c-1.4,0.7-3,1.1-4.8,1.1L821.8,776L821.8,776z M815.7,762H828c0-2.4-0.5-4.2-1.6-5.4s-2.5-1.8-4.4-1.8
					c-1.7,0-3.2,0.6-4.4,1.8C816.5,757.9,815.8,759.6,815.7,762z"/>
				<path d="M838.3,775.6v-32.4h3.7v32.4H838.3z"/>
				<path d="M858.2,776c-1.7,0-3.3-0.4-4.7-1.2s-2.5-2.1-3.4-3.9c-0.9-1.8-1.3-4-1.3-6.8v-0.5c0-2.5,0.4-4.6,1.2-6.3s1.9-3,3.3-3.9
					s2.9-1.3,4.5-1.3s3,0.3,4.2,0.9c1.2,0.6,2.1,1.5,2.8,2.5v-12.4h3.7v32.4H866l-0.5-3.3c-0.8,1.2-1.8,2.1-3,2.8
					S859.8,776,858.2,776z M858.8,773.2c1.1,0,2.2-0.3,3.1-0.8c0.9-0.5,1.7-1.4,2.3-2.7c0.6-1.2,0.9-2.9,0.9-5v-1.8
					c0-1.8-0.3-3.3-0.8-4.5c-0.6-1.2-1.3-2-2.2-2.6s-2-0.9-3.2-0.9c-1.7,0-3.1,0.7-4.3,2c-1.2,1.4-1.8,3.4-1.8,6.1v1.8
					c0,2.1,0.3,3.8,0.8,5s1.3,2.1,2.2,2.6C856.7,773,857.7,773.2,858.8,773.2z"/>
				<path d="M891.8,775.6l-7.7-23h3.9l5.6,17.3h0.2l5.7-17.3h4.1l5.7,17.3h0.2l5.7-17.3h3.6l-7.7,23h-3.6l-5.9-17.7h-0.1l-5.9,17.7
					H891.8z"/>
				<path d="M924.1,746.5v-3.3h4.1v3.3H924.1z M924.2,775.6v-23h3.7v23H924.2z"/>
				<path d="M942.1,776c-1,0-1.9-0.2-2.8-0.5c-0.8-0.3-1.5-0.9-1.9-1.7c-0.5-0.8-0.7-1.8-0.7-3.1v-15.2h-2.5v-3h2.6l1.3-7.3h2.4v7.3
					h5.4v3h-5.4v14.6c0,1.3,0.3,2.2,0.8,2.5c0.5,0.4,1.1,0.5,1.8,0.5c0.3,0,0.8-0.1,1.4-0.2s1.1-0.3,1.4-0.5v2.7
					c-0.3,0.2-0.7,0.3-1.1,0.5c-0.4,0.1-0.9,0.2-1.3,0.3C943,776,942.6,776,942.1,776z"/>
				<path d="M952.2,775.6v-32.4h3.7v12.6c0.8-1.2,1.9-2.1,3.2-2.7c1.3-0.6,2.7-0.9,4-0.9c1.6,0,3,0.3,4.2,0.9
					c1.2,0.6,2.2,1.5,2.9,2.7c0.7,1.2,1.1,2.7,1.1,4.6v15.2h-3.7V761c0-2.1-0.5-3.6-1.5-4.5s-2.3-1.4-4.1-1.4
					c-1.1,0-2.2,0.3-3.1,0.8s-1.6,1.3-2.2,2.2c-0.5,0.9-0.8,2-0.8,3.2v14.2L952.2,775.6L952.2,775.6z"/>
				<path d="M995.3,776c-1.2,0-2.4-0.2-3.5-0.6c-1.1-0.4-2-1-2.7-2c-0.7-0.9-1.1-2.2-1.1-3.9s0.4-3,1.1-4c0.8-1,1.8-1.8,3.2-2.3
					c1.4-0.5,3-0.9,4.9-1s4-0.2,6.3-0.2v-2.6c0-1.7-0.4-2.9-1.3-3.6c-0.9-0.7-2.2-1-4.1-1c-1.6,0-2.9,0.3-4,1
					c-1.1,0.6-1.7,1.7-1.7,3.2v0.6h-3.6c0-0.1-0.1-0.3-0.1-0.5s0-0.4,0-0.5c0-1.4,0.4-2.5,1.2-3.5c0.8-1,1.9-1.7,3.3-2.2
					s3-0.8,4.7-0.8h0.5c2.9,0,5.1,0.6,6.5,1.8s2.2,2.9,2.2,5.1v12.7c0,0.5,0.1,0.9,0.3,1.2c0.2,0.2,0.5,0.4,0.8,0.4s0.7-0.1,1.1-0.2
					s0.8-0.3,1.1-0.5v2.6c-0.4,0.3-0.9,0.5-1.4,0.7c-0.5,0.1-1.2,0.2-1.8,0.2c-0.9,0-1.7-0.2-2.2-0.6c-0.5-0.4-0.9-0.9-1.1-1.6
					c-0.2-0.6-0.3-1.4-0.4-2.1c-0.9,1.4-2,2.5-3.4,3.2C998.8,775.7,997.2,776,995.3,776z M996.7,773.2c1.1,0,2.2-0.3,3.2-0.8
					c1.1-0.5,1.9-1.3,2.6-2.3s1-2.3,1-3.9v-1.7c-2.4,0-4.5,0.1-6.2,0.3c-1.8,0.2-3.1,0.7-4.1,1.3c-0.9,0.7-1.4,1.7-1.4,3.2
					c0,1.4,0.4,2.3,1.2,3C993.8,772.9,995,773.2,996.7,773.2z"/>
				<path d="M1026.7,783.7v-31.2h2.7l0.6,3.3c0.8-1.2,1.8-2.1,3-2.8c1.2-0.6,2.7-1,4.3-1c1.7,0,3.3,0.4,4.7,1.2
					c1.4,0.8,2.5,2,3.3,3.8c0.8,1.7,1.2,4,1.2,6.8v0.7c0,2.5-0.4,4.5-1.2,6.3c-0.8,1.7-1.9,3-3.3,3.9s-2.9,1.3-4.6,1.3
					c-1.6,0-3-0.3-4.2-1s-2.1-1.5-2.8-2.5v11.2H1026.7z M1036.6,773.2c1.1,0,2.2-0.3,3.1-0.9c0.9-0.6,1.6-1.4,2.2-2.6
					c0.5-1.2,0.8-2.7,0.8-4.5v-1.8c0-2.1-0.3-3.7-0.8-5c-0.5-1.2-1.3-2.1-2.2-2.7c-0.9-0.6-1.9-0.8-3.1-0.8c-1.1,0-2.1,0.3-3.1,0.8
					c-0.9,0.5-1.7,1.4-2.3,2.7c-0.6,1.2-0.9,2.9-0.9,5v1.8c0,1.8,0.3,3.3,0.8,4.5c0.6,1.2,1.3,2,2.3,2.6
					C1034.4,772.9,1035.4,773.2,1036.6,773.2z"/>
				<path d="M1058.9,776c-1.2,0-2.4-0.2-3.5-0.6c-1.1-0.4-2-1-2.7-2c-0.7-0.9-1.1-2.2-1.1-3.9s0.4-3,1.1-4c0.8-1,1.8-1.8,3.2-2.3
					c1.4-0.5,3-0.9,4.9-1s4-0.2,6.3-0.2v-2.6c0-1.7-0.4-2.9-1.3-3.6c-0.9-0.7-2.2-1-4.1-1c-1.6,0-2.9,0.3-4,1
					c-1.1,0.6-1.7,1.7-1.7,3.2v0.6h-3.6c0-0.1-0.1-0.3-0.1-0.5s0-0.4,0-0.5c0-1.4,0.4-2.5,1.2-3.5c0.8-1,1.9-1.7,3.3-2.2
					s3-0.8,4.7-0.8h0.5c2.9,0,5.1,0.6,6.5,1.8s2.2,2.9,2.2,5.1v12.7c0,0.5,0.1,0.9,0.3,1.2c0.2,0.2,0.5,0.4,0.8,0.4s0.7-0.1,1.1-0.2
					s0.8-0.3,1.1-0.5v2.6c-0.4,0.3-0.9,0.5-1.4,0.7c-0.5,0.1-1.2,0.2-1.8,0.2c-0.9,0-1.7-0.2-2.2-0.6c-0.5-0.4-0.9-0.9-1.1-1.6
					c-0.2-0.6-0.3-1.4-0.4-2.1c-0.9,1.4-2,2.5-3.4,3.2C1062.4,775.7,1060.8,776,1058.9,776z M1060.3,773.2c1.1,0,2.2-0.3,3.2-0.8
					c1.1-0.5,1.9-1.3,2.6-2.3s1-2.3,1-3.9v-1.7c-2.4,0-4.5,0.1-6.2,0.3c-1.8,0.2-3.1,0.7-4.1,1.3c-0.9,0.7-1.4,1.7-1.4,3.2
					c0,1.4,0.4,2.3,1.2,3C1057.4,772.9,1058.6,773.2,1060.3,773.2z"/>
				<path d="M1087.7,776c-1.7,0-3.1-0.2-4.2-0.6c-1.2-0.4-2.1-0.9-2.9-1.6c-0.8-0.7-1.3-1.4-1.6-2.1c-0.3-0.8-0.5-1.5-0.5-2.2
					c0-0.2,0-0.3,0-0.5c0-0.1,0-0.3,0-0.6h3.3c0,0.1,0,0.2,0,0.3s0,0.2,0,0.2c0,0.9,0.3,1.7,0.9,2.3s1.4,1.1,2.4,1.4
					c1,0.3,2.1,0.5,3.5,0.5c1.2,0,2.2-0.2,3.1-0.5s1.6-0.8,2.1-1.3c0.5-0.6,0.8-1.2,0.8-2c0-0.9-0.3-1.6-0.8-2.1s-1.3-0.9-2.2-1.2
					c-0.9-0.3-1.9-0.5-3-0.7s-2.2-0.4-3.3-0.7c-1.1-0.3-2.1-0.6-3-1s-1.6-1-2.2-1.8s-0.8-1.8-0.8-3.1c0-1,0.2-1.9,0.6-2.7
					s1-1.5,1.8-2.1s1.8-1,2.9-1.4c1.1-0.3,2.4-0.5,3.9-0.5h0.5c1.4,0,2.6,0.2,3.7,0.5c1.1,0.4,2,0.8,2.7,1.4c0.7,0.6,1.3,1.3,1.7,2
					c0.4,0.7,0.6,1.5,0.6,2.2c0,0.1,0,0.3,0,0.4c0,0.2,0,0.3,0,0.3h-3.4v-0.5c0-0.3-0.1-0.6-0.2-1s-0.4-0.8-0.8-1.2s-1-0.7-1.7-1
					s-1.8-0.4-3.1-0.4c-1.2,0-2.1,0.1-2.9,0.4c-0.8,0.3-1.3,0.6-1.7,0.9c-0.4,0.4-0.6,0.8-0.8,1.1c-0.1,0.4-0.2,0.7-0.2,1
					c0,0.8,0.3,1.4,0.8,1.9s1.3,0.8,2.2,1.1c0.9,0.3,1.9,0.5,3,0.7s2.2,0.4,3.3,0.7c1.1,0.3,2.1,0.6,3,1.1s1.6,1.1,2.2,1.9
					c0.5,0.8,0.8,1.8,0.8,3.1s-0.2,2.4-0.7,3.4c-0.5,0.9-1.2,1.7-2.1,2.3s-1.9,1-3,1.2c-1.1,0.3-2.4,0.4-3.7,0.4L1087.7,776
					L1087.7,776z"/>
				<path d="M1111.9,776c-1.7,0-3.1-0.2-4.2-0.6c-1.2-0.4-2.1-0.9-2.9-1.6c-0.8-0.7-1.3-1.4-1.6-2.1c-0.3-0.8-0.5-1.5-0.5-2.2
					c0-0.2,0-0.3,0-0.5c0-0.1,0-0.3,0-0.6h3.3c0,0.1,0,0.2,0,0.3s0,0.2,0,0.2c0,0.9,0.3,1.7,0.9,2.3s1.4,1.1,2.4,1.4
					c1,0.3,2.1,0.5,3.5,0.5c1.2,0,2.2-0.2,3.1-0.5s1.6-0.8,2.1-1.3c0.5-0.6,0.8-1.2,0.8-2c0-0.9-0.3-1.6-0.8-2.1s-1.3-0.9-2.2-1.2
					c-0.9-0.3-1.9-0.5-3-0.7s-2.2-0.4-3.3-0.7c-1.1-0.3-2.1-0.6-3-1s-1.6-1-2.2-1.8s-0.8-1.8-0.8-3.1c0-1,0.2-1.9,0.6-2.7
					s1-1.5,1.8-2.1s1.8-1,2.9-1.4c1.1-0.3,2.4-0.5,3.9-0.5h0.5c1.4,0,2.6,0.2,3.7,0.5c1.1,0.4,2,0.8,2.7,1.4c0.7,0.6,1.3,1.3,1.7,2
					c0.4,0.7,0.6,1.5,0.6,2.2c0,0.1,0,0.3,0,0.4c0,0.2,0,0.3,0,0.3h-3.4v-0.5c0-0.3-0.1-0.6-0.2-1s-0.4-0.8-0.8-1.2s-1-0.7-1.7-1
					s-1.8-0.4-3.1-0.4c-1.2,0-2.1,0.1-2.9,0.4c-0.8,0.3-1.3,0.6-1.7,0.9c-0.4,0.4-0.6,0.8-0.8,1.1c-0.1,0.4-0.2,0.7-0.2,1
					c0,0.8,0.3,1.4,0.8,1.9s1.3,0.8,2.2,1.1c0.9,0.3,1.9,0.5,3,0.7s2.2,0.4,3.3,0.7c1.1,0.3,2.1,0.6,3,1.1s1.6,1.1,2.2,1.9
					c0.5,0.8,0.8,1.8,0.8,3.1s-0.2,2.4-0.7,3.4c-0.5,0.9-1.2,1.7-2.1,2.3s-1.9,1-3,1.2c-1.1,0.3-2.4,0.4-3.7,0.4L1111.9,776
					L1111.9,776z"/>
				<path d="M1128.7,746.5v-3.3h4.1v3.3H1128.7z M1128.8,775.6v-23h3.7v23H1128.8z"/>
				<path d="M1149.6,776c-2,0-3.7-0.5-5.2-1.4s-2.7-2.2-3.6-4c-0.9-1.7-1.3-3.8-1.3-6.3v-0.7c0-2.5,0.4-4.6,1.3-6.3s2.1-3,3.6-4
					c1.5-0.9,3.3-1.4,5.2-1.4h0.4c2,0,3.7,0.5,5.2,1.4s2.7,2.2,3.6,4c0.9,1.7,1.3,3.8,1.3,6.3v0.7c0,2.4-0.4,4.5-1.3,6.3
					c-0.9,1.7-2.1,3.1-3.6,4s-3.3,1.4-5.2,1.4H1149.6z M1149.9,773.2c1.2,0,2.3-0.3,3.3-0.9s1.7-1.5,2.3-2.7
					c0.6-1.2,0.9-2.7,0.9-4.4v-2.4c0-1.8-0.3-3.3-0.9-4.4c-0.6-1.2-1.3-2.1-2.3-2.7c-1-0.6-2.1-0.9-3.3-0.9c-1.2,0-2.3,0.3-3.3,0.9
					c-1,0.6-1.8,1.5-2.3,2.7c-0.6,1.2-0.9,2.7-0.9,4.4v2.4c0,1.7,0.3,3.2,0.9,4.4s1.4,2.1,2.3,2.7S1148.7,773.2,1149.9,773.2z"/>
				<path d="M1166.8,775.6v-23h2.7l0.6,3.4c0.8-1.3,1.9-2.2,3.3-2.9s2.8-1,4.3-1c1.6,0,3,0.3,4.2,0.9c1.2,0.6,2.2,1.5,2.9,2.7
					c0.7,1.2,1.1,2.7,1.1,4.6v15.2h-3.7V761c0-2.1-0.5-3.6-1.4-4.5c-1-0.9-2.3-1.4-4.1-1.4c-1.1,0-2.2,0.3-3.1,0.8s-1.6,1.3-2.2,2.2
					c-0.5,0.9-0.8,2-0.8,3.2v14.2L1166.8,775.6L1166.8,775.6z"/>
				<path d="M1205.1,775.6v-20h-2.6v-3h2.6v-4.4c0-1.9,0.5-3.3,1.5-4.1c1-0.9,2.3-1.3,3.9-1.3c0.4,0,0.9,0,1.3,0.1
					c0.5,0.1,0.9,0.2,1.3,0.3s0.8,0.2,1.1,0.4v2.7c-0.4-0.1-0.8-0.3-1.4-0.4c-0.6-0.1-1-0.2-1.4-0.2s-0.8,0.1-1.2,0.2
					c-0.4,0.1-0.7,0.4-1,0.8s-0.4,1.1-0.4,2v4h5.4v3h-5.4v20L1205.1,775.6L1205.1,775.6z"/>
				<path d="M1229.2,776c-2,0-3.7-0.5-5.2-1.4s-2.7-2.2-3.6-4c-0.9-1.7-1.3-3.8-1.3-6.3v-0.7c0-2.5,0.4-4.6,1.3-6.3s2.1-3,3.6-4
					c1.5-0.9,3.3-1.4,5.2-1.4h0.4c2,0,3.7,0.5,5.2,1.4s2.7,2.2,3.6,4c0.9,1.7,1.3,3.8,1.3,6.3v0.7c0,2.4-0.4,4.5-1.3,6.3
					c-0.9,1.7-2.1,3.1-3.6,4s-3.3,1.4-5.2,1.4H1229.2z M1229.5,773.2c1.2,0,2.3-0.3,3.3-0.9s1.7-1.5,2.3-2.7
					c0.6-1.2,0.9-2.7,0.9-4.4v-2.4c0-1.8-0.3-3.3-0.9-4.4c-0.6-1.2-1.3-2.1-2.3-2.7c-1-0.6-2.1-0.9-3.3-0.9c-1.2,0-2.3,0.3-3.3,0.9
					c-1,0.6-1.8,1.5-2.3,2.7c-0.6,1.2-0.9,2.7-0.9,4.4v2.4c0,1.7,0.3,3.2,0.9,4.4s1.4,2.1,2.3,2.7S1228.3,773.2,1229.5,773.2z"/>
				<path d="M1246.4,775.6v-23h2.7l0.6,3.4c0-0.1,0.2-0.3,0.4-0.7c0.2-0.4,0.6-0.8,1.1-1.3s1.1-0.9,2-1.3c0.8-0.4,1.8-0.6,3-0.6
					c1.6,0,3,0.3,4,1s1.8,1.6,2.3,2.7c0.5,1.1,0.8,2.4,0.8,3.8c0,0.3,0,0.6,0,0.9c0,0.3,0,0.5,0,0.6h-3.2v-0.8
					c0-0.7-0.1-1.5-0.4-2.3s-0.8-1.4-1.5-2s-1.7-0.8-2.9-0.8c-0.9,0-1.7,0.2-2.4,0.6c-0.6,0.4-1.2,0.9-1.5,1.5
					c-0.4,0.6-0.6,1.2-0.8,1.9c-0.2,0.7-0.2,1.3-0.2,1.8v14.6L1246.4,775.6L1246.4,775.6z"/>
				<path d="M1279.9,775.6v-20h-2.6v-3h2.6v-4.4c0-1.9,0.5-3.3,1.5-4.1c1-0.9,2.3-1.3,3.9-1.3c0.4,0,0.9,0,1.3,0.1
					c0.5,0.1,0.9,0.2,1.3,0.3s0.8,0.2,1.1,0.4v2.7c-0.4-0.1-0.8-0.3-1.4-0.4c-0.6-0.1-1-0.2-1.4-0.2s-0.8,0.1-1.2,0.2
					c-0.4,0.1-0.7,0.4-1,0.8s-0.4,1.1-0.4,2v4h5.4v3h-5.4v20L1279.9,775.6L1279.9,775.6z"/>
				<path d="M1294.9,775.6v-23h2.7l0.6,3.4c0-0.1,0.2-0.3,0.4-0.7c0.2-0.4,0.6-0.8,1.1-1.3s1.1-0.9,2-1.3c0.8-0.4,1.8-0.6,3-0.6
					c1.6,0,3,0.3,4,1s1.8,1.6,2.3,2.7c0.5,1.1,0.8,2.4,0.8,3.8c0,0.3,0,0.6,0,0.9c0,0.3,0,0.5,0,0.6h-3.2v-0.8
					c0-0.7-0.1-1.5-0.4-2.3s-0.8-1.4-1.5-2s-1.7-0.8-2.9-0.8c-0.9,0-1.7,0.2-2.4,0.6c-0.6,0.4-1.2,0.9-1.5,1.5
					c-0.4,0.6-0.6,1.2-0.8,1.9c-0.2,0.7-0.2,1.3-0.2,1.8v14.6L1294.9,775.6L1294.9,775.6z"/>
				<path d="M1325.9,776c-2,0-3.7-0.5-5.2-1.4s-2.7-2.2-3.6-4c-0.9-1.7-1.3-3.8-1.3-6.3v-0.7c0-2.5,0.4-4.6,1.3-6.3s2.1-3,3.6-4
					c1.5-0.9,3.3-1.4,5.2-1.4h0.4c2,0,3.7,0.5,5.2,1.4s2.7,2.2,3.6,4c0.9,1.7,1.3,3.8,1.3,6.3v0.7c0,2.4-0.4,4.5-1.3,6.3
					c-0.9,1.7-2.1,3.1-3.6,4s-3.3,1.4-5.2,1.4H1325.9z M1326.2,773.2c1.2,0,2.3-0.3,3.3-0.9s1.7-1.5,2.3-2.7
					c0.6-1.2,0.9-2.7,0.9-4.4v-2.4c0-1.8-0.3-3.3-0.9-4.4c-0.6-1.2-1.3-2.1-2.3-2.7c-1-0.6-2.1-0.9-3.3-0.9c-1.2,0-2.3,0.3-3.3,0.9
					c-1,0.6-1.8,1.5-2.3,2.7c-0.6,1.2-0.9,2.7-0.9,4.4v2.4c0,1.7,0.3,3.2,0.9,4.4s1.4,2.1,2.3,2.7S1325,773.2,1326.2,773.2z"/>
				<path d="M1343.1,775.6v-23h2.7l0.6,3.4c0.8-1.3,1.9-2.2,3.3-2.9s2.8-1,4.3-1c1.6,0,3,0.3,4.2,0.9c1.2,0.6,2.2,1.5,2.9,2.7
					c0.7,1.2,1.1,2.7,1.1,4.6v15.2h-3.7V761c0-2.1-0.5-3.6-1.4-4.5c-1-0.9-2.3-1.4-4.1-1.4c-1.1,0-2.2,0.3-3.1,0.8s-1.6,1.3-2.2,2.2
					c-0.5,0.9-0.8,2-0.8,3.2v14.2L1343.1,775.6L1343.1,775.6z"/>
				<path d="M1376.1,776c-1,0-1.9-0.2-2.8-0.5c-0.8-0.3-1.5-0.9-1.9-1.7c-0.5-0.8-0.7-1.8-0.7-3.1v-15.2h-2.5v-3h2.6l1.3-7.3h2.4
					v7.3h5.4v3h-5.4v14.6c0,1.3,0.3,2.2,0.8,2.5c0.5,0.4,1.1,0.5,1.8,0.5c0.3,0,0.8-0.1,1.4-0.2s1.1-0.3,1.4-0.5v2.7
					c-0.3,0.2-0.7,0.3-1.1,0.5c-0.4,0.1-0.9,0.2-1.3,0.3C1376.9,776,1376.5,776,1376.1,776z"/>
				<path d="M1395.2,776c-2,0-3.7-0.5-5.2-1.4s-2.7-2.2-3.5-3.9s-1.3-3.8-1.3-6.2v-0.9c0-2.5,0.4-4.5,1.3-6.3c0.9-1.7,2.1-3,3.6-3.9
					s3.3-1.4,5.3-1.4h0.4c1.8,0,3.4,0.4,4.8,1.1c1.4,0.8,2.5,1.8,3.3,3.3s1.2,3.2,1.2,5.1v2.8h-16c0,1.9,0.3,3.4,0.8,4.8
					s1.2,2.3,2.2,3s2.1,1,3.5,1c1.1,0,2.1-0.2,3-0.7s1.6-1.1,2.2-2c0.5-0.9,0.8-2.1,0.8-3.4h3.6c0,1.8-0.4,3.4-1.3,4.8
					c-0.9,1.4-2,2.4-3.4,3.1c-1.4,0.7-3,1.1-4.8,1.1L1395.2,776L1395.2,776z M1389,762h12.3c0-2.4-0.5-4.2-1.6-5.4s-2.5-1.8-4.4-1.8
					c-1.7,0-3.2,0.6-4.4,1.8C1389.8,757.9,1389.2,759.6,1389,762z"/>
				<path d="M1411.7,775.6v-23h2.7l0.6,3.4c0.8-1.3,1.9-2.2,3.3-2.9s2.8-1,4.3-1c1.6,0,3,0.3,4.2,0.9c1.2,0.6,2.2,1.5,2.9,2.7
					c0.7,1.2,1.1,2.7,1.1,4.6v15.2h-3.7V761c0-2.1-0.5-3.6-1.4-4.5c-1-0.9-2.3-1.4-4.1-1.4c-1.1,0-2.2,0.3-3.1,0.8s-1.6,1.3-2.2,2.2
					c-0.5,0.9-0.8,2-0.8,3.2v14.2L1411.7,775.6L1411.7,775.6z"/>
				<path d="M1446.8,776c-1.7,0-3.3-0.4-4.7-1.2c-1.4-0.8-2.5-2.1-3.4-3.9c-0.9-1.8-1.3-4-1.3-6.8v-0.5c0-2.5,0.4-4.6,1.2-6.3
					c0.8-1.7,1.9-3,3.3-3.9s2.9-1.3,4.5-1.3s3,0.3,4.2,0.9c1.2,0.6,2.1,1.5,2.8,2.5v-12.4h3.7v32.4h-2.8l-0.5-3.3
					c-0.8,1.2-1.8,2.1-3,2.8S1448.4,776,1446.8,776z M1447.4,773.2c1.1,0,2.2-0.3,3.1-0.8s1.7-1.4,2.3-2.7c0.6-1.2,0.9-2.9,0.9-5
					v-1.8c0-1.8-0.3-3.3-0.8-4.5c-0.6-1.2-1.3-2-2.2-2.6c-0.9-0.6-2-0.9-3.2-0.9c-1.7,0-3.1,0.7-4.3,2c-1.2,1.4-1.8,3.4-1.8,6.1v1.8
					c0,2.1,0.3,3.8,0.8,5s1.3,2.1,2.2,2.6C1445.2,773,1446.3,773.2,1447.4,773.2z"/>
				<path d="M1480.3,775.6l-7.7-23h3.9l5.6,17.3h0.2l5.7-17.3h4.1l5.7,17.3h0.2l5.7-17.3h3.6l-7.7,23h-3.6l-5.9-17.7h-0.1l-5.9,17.7
					H1480.3z"/>
				<path d="M1521.4,776c-2,0-3.7-0.5-5.2-1.4s-2.7-2.2-3.5-3.9s-1.3-3.8-1.3-6.2v-0.9c0-2.5,0.4-4.5,1.3-6.3c0.9-1.7,2.1-3,3.6-3.9
					s3.3-1.4,5.3-1.4h0.4c1.8,0,3.4,0.4,4.8,1.1c1.4,0.8,2.5,1.8,3.3,3.3s1.2,3.2,1.2,5.1v2.8h-16c0,1.9,0.3,3.4,0.8,4.8
					s1.2,2.3,2.2,3s2.1,1,3.5,1c1.1,0,2.1-0.2,3-0.7s1.6-1.1,2.2-2c0.5-0.9,0.8-2.1,0.8-3.4h3.6c0,1.8-0.4,3.4-1.3,4.8
					c-0.9,1.4-2,2.4-3.4,3.1c-1.4,0.7-3,1.1-4.8,1.1L1521.4,776L1521.4,776z M1515.3,762h12.3c0-2.4-0.5-4.2-1.6-5.4
					s-2.5-1.8-4.4-1.8c-1.7,0-3.2,0.6-4.4,1.8C1516,757.9,1515.4,759.6,1515.3,762z"/>
				<path d="M1548.4,776c-3.5,0-6.1-1.4-7.8-4.2l-1.4,3.7h-1.4v-32.4h3.7v12.4c0.7-1,1.6-1.9,2.8-2.5c1.2-0.6,2.6-1,4.2-1
					c1.7,0,3.2,0.4,4.5,1.2c1.4,0.8,2.5,2,3.3,3.7c0.8,1.6,1.2,3.7,1.2,6.1v0.8c0,2.8-0.4,5.1-1.3,6.9c-0.8,1.8-2,3.1-3.4,4
					C1551.7,775.6,1550.1,776,1548.4,776z M1547.8,773.2c1.1,0,2.2-0.3,3.1-0.8c0.9-0.6,1.6-1.5,2.2-2.7s0.8-2.9,0.8-5v-1.8
					c0-1.8-0.3-3.3-0.8-4.5s-1.2-2-2.1-2.6s-1.9-0.9-3.1-0.9c-1.1,0-2.1,0.3-3.1,0.9c-1,0.6-1.7,1.4-2.3,2.6
					c-0.6,1.2-0.9,2.7-0.9,4.5v1.8c0,2.1,0.3,3.7,0.9,5c0.6,1.2,1.3,2.1,2.3,2.7S1546.6,773.2,1547.8,773.2z"/>
				<path d="M1583.1,776c-1.7,0-3.3-0.4-4.7-1.2c-1.4-0.8-2.5-2.1-3.4-3.9c-0.9-1.8-1.3-4-1.3-6.8v-0.5c0-2.5,0.4-4.6,1.2-6.3
					c0.8-1.7,1.9-3,3.3-3.9s2.9-1.3,4.5-1.3s3,0.3,4.2,0.9c1.2,0.6,2.1,1.5,2.8,2.5v-12.4h3.7v32.4h-2.8l-0.5-3.3
					c-0.8,1.2-1.8,2.1-3,2.8S1584.8,776,1583.1,776z M1583.7,773.2c1.1,0,2.2-0.3,3.1-0.8s1.7-1.4,2.3-2.7c0.6-1.2,0.9-2.9,0.9-5
					v-1.8c0-1.8-0.3-3.3-0.8-4.5c-0.6-1.2-1.3-2-2.2-2.6c-0.9-0.6-2-0.9-3.2-0.9c-1.7,0-3.1,0.7-4.3,2c-1.2,1.4-1.8,3.4-1.8,6.1v1.8
					c0,2.1,0.3,3.8,0.8,5s1.3,2.1,2.2,2.6C1581.6,773,1582.6,773.2,1583.7,773.2z"/>
				<path d="M1610.2,776c-2,0-3.7-0.5-5.2-1.4s-2.7-2.2-3.5-3.9s-1.3-3.8-1.3-6.2v-0.9c0-2.5,0.4-4.5,1.3-6.3c0.9-1.7,2.1-3,3.6-3.9
					s3.3-1.4,5.3-1.4h0.4c1.8,0,3.4,0.4,4.8,1.1c1.4,0.8,2.5,1.8,3.3,3.3s1.2,3.2,1.2,5.1v2.8h-16c0,1.9,0.3,3.4,0.8,4.8
					s1.2,2.3,2.2,3s2.1,1,3.5,1c1.1,0,2.1-0.2,3-0.7s1.6-1.1,2.2-2c0.5-0.9,0.8-2.1,0.8-3.4h3.6c0,1.8-0.4,3.4-1.3,4.8
					c-0.9,1.4-2,2.4-3.4,3.1c-1.4,0.7-3,1.1-4.8,1.1L1610.2,776L1610.2,776z M1604.1,762h12.3c0-2.4-0.5-4.2-1.6-5.4
					s-2.5-1.8-4.4-1.8c-1.7,0-3.2,0.6-4.4,1.8C1604.9,757.9,1604.2,759.6,1604.1,762z"/>
				<path d="M1632.8,775.6l-8.9-23h4l6.9,18.2h0.1l6.9-18.2h3.6l-8.9,23H1632.8z"/>
				<path d="M1659.3,776c-2,0-3.7-0.5-5.2-1.4s-2.7-2.2-3.5-3.9s-1.3-3.8-1.3-6.2v-0.9c0-2.5,0.4-4.5,1.3-6.3c0.9-1.7,2.1-3,3.6-3.9
					s3.3-1.4,5.3-1.4h0.4c1.8,0,3.4,0.4,4.8,1.1c1.4,0.8,2.5,1.8,3.3,3.3s1.2,3.2,1.2,5.1v2.8h-16c0,1.9,0.3,3.4,0.8,4.8
					s1.2,2.3,2.2,3s2.1,1,3.5,1c1.1,0,2.1-0.2,3-0.7s1.6-1.1,2.2-2c0.5-0.9,0.8-2.1,0.8-3.4h3.6c0,1.8-0.4,3.4-1.3,4.8
					c-0.9,1.4-2,2.4-3.4,3.1c-1.4,0.7-3,1.1-4.8,1.1L1659.3,776L1659.3,776z M1653.1,762h12.3c0-2.4-0.5-4.2-1.6-5.4
					s-2.5-1.8-4.4-1.8c-1.7,0-3.2,0.6-4.4,1.8C1653.9,757.9,1653.2,759.6,1653.1,762z"/>
				<path d="M1675.7,775.6v-32.4h3.7v32.4H1675.7z"/>
				<path d="M1696.4,776c-2,0-3.7-0.5-5.2-1.4s-2.7-2.2-3.6-4c-0.9-1.7-1.3-3.8-1.3-6.3v-0.7c0-2.5,0.4-4.6,1.3-6.3s2.1-3,3.6-4
					c1.5-0.9,3.3-1.4,5.2-1.4h0.4c2,0,3.7,0.5,5.2,1.4s2.7,2.2,3.6,4c0.9,1.7,1.3,3.8,1.3,6.3v0.7c0,2.4-0.4,4.5-1.3,6.3
					c-0.9,1.7-2.1,3.1-3.6,4s-3.3,1.4-5.2,1.4H1696.4z M1696.6,773.2c1.2,0,2.3-0.3,3.3-0.9s1.7-1.5,2.3-2.7
					c0.6-1.2,0.9-2.7,0.9-4.4v-2.4c0-1.8-0.3-3.3-0.9-4.4c-0.6-1.2-1.3-2.1-2.3-2.7c-1-0.6-2.1-0.9-3.3-0.9c-1.2,0-2.3,0.3-3.3,0.9
					c-1,0.6-1.8,1.5-2.3,2.7c-0.6,1.2-0.9,2.7-0.9,4.4v2.4c0,1.7,0.3,3.2,0.9,4.4s1.4,2.1,2.3,2.7S1695.4,773.2,1696.6,773.2z"/>
				<path d="M1713.5,783.7v-31.2h2.7l0.6,3.3c0.8-1.2,1.8-2.1,3-2.8c1.2-0.6,2.7-1,4.3-1c1.7,0,3.3,0.4,4.7,1.2
					c1.4,0.8,2.5,2,3.3,3.8c0.8,1.7,1.2,4,1.2,6.8v0.7c0,2.5-0.4,4.5-1.2,6.3c-0.8,1.7-1.9,3-3.3,3.9s-2.9,1.3-4.6,1.3
					c-1.6,0-3-0.3-4.2-1s-2.1-1.5-2.8-2.5v11.2H1713.5z M1723.4,773.2c1.1,0,2.2-0.3,3.1-0.9c0.9-0.6,1.6-1.4,2.2-2.6
					c0.5-1.2,0.8-2.7,0.8-4.5v-1.8c0-2.1-0.3-3.7-0.8-5c-0.5-1.2-1.3-2.1-2.2-2.7c-0.9-0.6-1.9-0.8-3.1-0.8c-1.1,0-2.1,0.3-3.1,0.8
					c-0.9,0.5-1.7,1.4-2.3,2.7c-0.6,1.2-0.9,2.9-0.9,5v1.8c0,1.8,0.3,3.3,0.8,4.5c0.6,1.2,1.3,2,2.3,2.6
					C1721.3,772.9,1722.3,773.2,1723.4,773.2z"/>
				<path d="M1740,775.6v-23h2.7l0.6,3.4c0.7-1.2,1.7-2.2,2.8-2.9s2.4-1,3.8-1c1.5,0,2.8,0.3,4,0.9c1.2,0.6,2.1,1.6,2.8,2.9
					c0.6-1.1,1.5-2,2.7-2.7s2.6-1.1,4.3-1.1c1.5,0,2.8,0.3,3.9,0.9c1.1,0.6,2,1.5,2.7,2.7s1,2.7,1,4.6v15.2h-3.7v-14.3
					c0-2.1-0.4-3.7-1.2-4.7c-0.8-1-2-1.5-3.6-1.5c-1,0-1.9,0.3-2.7,0.8c-0.8,0.5-1.4,1.3-1.9,2.2s-0.7,2-0.7,3.2v14.2h-3.7v-14.3
					c0-2.1-0.4-3.7-1.2-4.7c-0.8-1-2-1.5-3.6-1.5c-1,0-1.9,0.3-2.7,0.8c-0.8,0.5-1.4,1.3-1.8,2.2c-0.5,0.9-0.7,2-0.7,3.2v14.2h-3.8
					V775.6z"/>
				<path d="M1788.1,776c-2,0-3.7-0.5-5.2-1.4s-2.7-2.2-3.5-3.9s-1.3-3.8-1.3-6.2v-0.9c0-2.5,0.4-4.5,1.3-6.3c0.9-1.7,2.1-3,3.6-3.9
					s3.3-1.4,5.3-1.4h0.4c1.8,0,3.4,0.4,4.8,1.1c1.4,0.8,2.5,1.8,3.3,3.3s1.2,3.2,1.2,5.1v2.8h-16c0,1.9,0.3,3.4,0.8,4.8
					s1.2,2.3,2.2,3s2.1,1,3.5,1c1.1,0,2.1-0.2,3-0.7s1.6-1.1,2.2-2c0.5-0.9,0.8-2.1,0.8-3.4h3.6c0,1.8-0.4,3.4-1.3,4.8
					c-0.9,1.4-2,2.4-3.4,3.1c-1.4,0.7-3,1.1-4.8,1.1L1788.1,776L1788.1,776z M1782,762h12.3c0-2.4-0.5-4.2-1.6-5.4s-2.5-1.8-4.4-1.8
					c-1.7,0-3.2,0.6-4.4,1.8C1782.7,757.9,1782.1,759.6,1782,762z"/>
				<path d="M1804.6,775.6v-23h2.7l0.6,3.4c0.8-1.3,1.9-2.2,3.3-2.9s2.8-1,4.3-1c1.6,0,3,0.3,4.2,0.9c1.2,0.6,2.2,1.5,2.9,2.7
					c0.7,1.2,1.1,2.7,1.1,4.6v15.2h-3.7V761c0-2.1-0.5-3.6-1.4-4.5c-1-0.9-2.3-1.4-4.1-1.4c-1.1,0-2.2,0.3-3.1,0.8s-1.6,1.3-2.2,2.2
					c-0.5,0.9-0.8,2-0.8,3.2v14.2L1804.6,775.6L1804.6,775.6z"/>
				<path d="M1837.5,776c-1,0-1.9-0.2-2.8-0.5c-0.8-0.3-1.5-0.9-1.9-1.7c-0.5-0.8-0.7-1.8-0.7-3.1v-15.2h-2.5v-3h2.6l1.3-7.3h2.4
					v7.3h5.4v3h-5.4v14.6c0,1.3,0.3,2.2,0.8,2.5c0.5,0.4,1.1,0.5,1.8,0.5c0.3,0,0.8-0.1,1.4-0.2s1.1-0.3,1.4-0.5v2.7
					c-0.3,0.2-0.7,0.3-1.1,0.5c-0.4,0.1-0.9,0.2-1.3,0.3C1838.4,776,1838,776,1837.5,776z"/>
				<path d="M1847.4,775.6v-4.2h4.1v4.2H1847.4z"/>
			</g>
		</g>
		<g>
			<g>
				<path class="st5" d="M641.1,558.9v-73h15.5v29.6H683V486h15.5v73h-15.4v-31.1h-26.4V559L641.1,558.9L641.1,558.9z"/>
				<path class="st5" d="M737.7,560c-5.1,0-9.6-1-13.6-3.1c-3.9-2.1-7-5.1-9.2-9.1s-3.3-8.9-3.3-14.6v-2.7c0-5.7,1.2-10.6,3.5-14.6
					s5.4-7.1,9.4-9.1c4-2.1,8.5-3.1,13.7-3.1h1.7c4.8,0,9,1,12.6,2.9c3.6,2,6.3,4.7,8.3,8.2c1.9,3.5,2.9,7.6,2.9,12.3v6.7h-36.8
					c0,3.4,0.4,6.4,1.3,8.9c0.9,2.6,2.1,4.5,3.8,5.8s3.9,2,6.7,2c2.3,0,4.3-0.4,6-1.3c1.7-0.9,3-2.2,4-4s1.4-3.9,1.4-6.5h13.6
					c0,4.2-1.1,7.9-3.2,11.1c-2.1,3.2-5.1,5.7-8.8,7.6c-3.7,1.8-8,2.7-12.9,2.7h-1.1V560z M727.1,526.2h22.4c0-4.5-1-7.8-3-9.9
					c-2-2.1-4.6-3.2-8-3.2c-3.2,0-5.9,1.1-8,3.3C728.3,518.6,727.2,521.8,727.1,526.2z"/>
				<path class="st5" d="M776,558.9v-76.6h14.6v76.6H776z"/>
				<path class="st5" d="M805.3,558.9v-76.6h14.6v76.6H805.3z"/>
				<path class="st5" d="M858.3,560c-5,0-9.5-1.1-13.5-3.4c-3.9-2.2-7-5.4-9.3-9.5c-2.2-4.1-3.3-8.9-3.3-14.4v-2
					c0-5.5,1.1-10.3,3.3-14.4c2.2-4.1,5.3-7.2,9.3-9.5c3.9-2.2,8.4-3.4,13.3-3.4h2.1c5,0,9.5,1.1,13.4,3.4c3.9,2.2,7,5.4,9.2,9.5
					s3.3,8.9,3.3,14.4v2c0,5.5-1.1,10.3-3.3,14.4c-2.2,4.1-5.3,7.2-9.2,9.5c-3.9,2.2-8.3,3.4-13.3,3.4H858.3z M859.2,550.4
					c2.2,0,4.2-0.5,5.9-1.5s3.1-2.6,4.1-4.6s1.5-4.4,1.5-7.3v-10.5c0-2.9-0.5-5.4-1.5-7.3c-1-2-2.4-3.5-4.1-4.5
					c-1.7-1-3.7-1.5-5.9-1.5c-2.1,0-4.1,0.5-5.8,1.5c-1.8,1-3.2,2.5-4.2,4.5s-1.5,4.4-1.5,7.3V537c0,2.8,0.5,5.3,1.5,7.3
					s2.4,3.5,4.2,4.6C855.2,549.9,857.1,550.4,859.2,550.4z"/>
				<path class="st5" d="M901.8,538.3L898,486h17.5l-4,52.3H901.8z M899.3,558.9v-14.5h14.8v14.5H899.3z"/>
			</g>
		</g>
	</g>
</g>
</svg>
