<?xml version="1.0" encoding="UTF-8"?>
<svg id="Circle" xmlns="http://www.w3.org/2000/svg" viewBox="0 0 72 72">
  <defs>
    <style>
      .cls-1 {
        fill: #231f20;
      }
    </style>
  </defs>
  <path class="cls-1" d="m49.05,20.27c-.65-.65-1.52-1.01-2.44-1.01-3.52,0-7.03.01-10.54.01s-7.09,0-10.63-.02c0,0,0,0-.01,0-.92,0-1.82.37-2.46,1.02-.65.66-1.01,1.53-1,2.45.02,3.27.02,6.6.01,9.82v3.42s0,4.03,0,4.03v9.3c0,1.93,1.46,3.39,3.38,3.39h10.8s10.49,0,10.49,0c1.94,0,3.41-1.46,3.41-3.4v-6.54c0-6.68,0-13.36,0-20.03,0-.93-.36-1.8-1.01-2.45Zm-23.63.99s0,0,0,0c3.55.01,7.09.02,10.64.02s7.03,0,10.54-.01h0c.8,0,1.45.64,1.45,1.46,0,4.11,0,8.21,0,12.32-6.74.57-4.31,6.95-11,6.95-3,0-4-2-9-2-2.17,0-3.39.75-4.09,1.77,0-1.93,0-3.86,0-5.79,0-4.42.01-8.83-.01-13.25,0-.83.67-1.47,1.47-1.47Zm19.64,5.74c0,1.66-1.34,3-3,3s-3-1.34-3-3,1.34-3,3-3,3,1.34,3,3Z"/>
  <path class="cls-1" d="m36,0C16.12,0,0,16.12,0,36s16.12,36,36,36,36-16.12,36-36S55.88,0,36,0Zm19.35,37.68c-.22,1.29-.77,2.45-1.36,3.6-.4.79-.33,1.22.29,1.85,1.39,1.44,1.41,3.34-.02,4.73-.59.58-.86,1.19-.83,2.02.03.94.1,1.88-.05,2.81-.31,1.95-1.98,3.58-3.94,3.86-.85.12-1.71.08-2.56.04-.92-.04-1.62.23-2.27.92-1.22,1.3-3.15,1.3-4.47.1-.66-.6-1.29-.59-1.96.01-1.24,1.14-3.1,1.15-4.35.01-.7-.63-1.31-.63-2.01,0-.67.61-1.46.89-2.35.84-.88-.05-1.65-.4-2.22-1.08-.51-.62-1.14-.82-1.93-.8-.93.02-1.86.08-2.78-.05-2.22-.31-3.99-2.33-4-4.56,0-.83,0-1.67,0-2.5,0-.52-.15-.97-.54-1.33-.25-.23-.49-.47-.69-.74-1-1.36-.84-3.01.42-4.31.58-.6.64-1.05.28-1.8-.37-.77-.79-1.51-1.06-2.33-.25-.79-.38-1.6-.48-2.41v-1.14c.08-.56.14-1.13.27-1.68.26-1.09.76-2.08,1.26-3.07.11-.22.21-.43.22-.69.03-.5-.24-.85-.57-1.18-.89-.88-1.17-1.95-.87-3.16.18-.73.63-1.28,1.18-1.77.44-.39.59-.87.58-1.44-.01-.8,0-1.6,0-2.41,0-2.5,2.12-4.63,4.62-4.65.85,0,1.71,0,2.56,0,.49,0,.91-.15,1.24-.52.65-.74,1.43-1.24,2.43-1.36h.51c.81.1,1.49.46,2.1,1,.48.43,1.15.43,1.62,0,.61-.55,1.29-.9,2.1-1h.51c.81.1,1.49.46,2.1,1,.48.43,1.15.43,1.62,0,.61-.55,1.29-.9,2.1-1h.51c1,.12,1.78.62,2.43,1.36.33.37.75.52,1.24.52.84,0,1.69,0,2.53,0,2.52.02,4.63,2.14,4.65,4.66,0,.84,0,1.69,0,2.53,0,.47.13.89.5,1.22.19.17.36.35.53.54.62.7.9,1.51.81,2.45-.07.85-.47,1.54-1.06,2.13-.53.53-.61,1.02-.29,1.69.18.37.37.74.55,1.11.93,1.9,1.22,3.88.86,5.97Z"/>
</svg>