<?xml version="1.0" encoding="UTF-8"?>
<svg id="Circle" xmlns="http://www.w3.org/2000/svg" viewBox="0 0 72 72">
  <defs>
    <style>
      .cls-1 {
        fill: #231f20;
      }
    </style>
  </defs>
  <path class="cls-1" d="m30.02,30.92c-.28-.28-.59-.48-.99-.45-.4-.02-.72.12-.99.39-.32.32-.61.67-.96.95-.46.36-.37.59,0,.97,2.61,2.58,5.19,5.17,7.78,7.76,1.49,1.49,2.99,2.98,4.47,4.49.31.31.5.31.77-.01.29-.34.64-.64.95-.96.66-.69.66-1.41-.02-2.09-.95-.96-1.91-1.92-2.87-2.87-2.72-2.72-5.44-5.43-8.16-8.15Z"/>
  <path class="cls-1" d="m52.09,17.84c-1.09,0-2.03.95-2.06,2.04-.02,1.11.93,2.08,2.05,2.09,1.1.01,2.08-.96,2.08-2.06,0-1.1-.98-2.08-2.08-2.07Z"/>
  <path class="cls-1" d="m35.71,45.2c-.78.14-1.41.54-1.96,1.07-.58.56-1.23,1-2.01,1.22-1.36.38-2.27-.5-1.95-1.87.19-.82.65-1.48,1.2-2.08.6-.65,1.08-1.36,1.1-2.29.02-.91-.46-1.38-1.37-1.34-.92.04-1.64.52-2.28,1.12-.63.59-1.33,1.05-2.19,1.22-1.18.24-2-.57-1.78-1.75.17-.88.63-1.59,1.25-2.23.61-.64,1.07-1.36,1.08-1.96,0-1.29-.97-1.14-1.94-1.02-.86.1-1.13.9-1.73,1.5-1.98,1.97-3.29,3.52-5.27,5.5-.87.87-.86,1.14,0,2,1.52,1.52,2.48,2.48,4,4,2.09,2.09,3.91,3.91,6,6,.76.76,1.23.76,2,0,2.02-2.01,2.99-2.98,5-5,.56-.56,2.35-1.66,2.49-2.45.2-1.11-.54-1.83-1.64-1.64Z"/>
  <path class="cls-1" d="m36,0C16.12,0,0,16.12,0,36s16.12,36,36,36,36-16.12,36-36S55.88,0,36,0Zm20.23,22.73c-1.64,3.03-3.9,5.54-6.51,7.74-.37.31-.77.48-1.25.58-2.24.48-4.41,1.14-6.19,2.68-1.23,1.07-1.63,2.3-1.16,3.56.21.57.58,1.04,1,1.47.55.55,1.11,1.09,1.64,1.65,1.07,1.13,1.06,2.75-.03,3.85-4.21,4.22-8.42,8.43-12.64,12.64-1.12,1.12-2.8,1.09-3.98-.07-2.61-2.6-5.21-5.21-7.81-7.81-1.33-1.33-2.66-2.65-3.98-3.98-1.38-1.38-1.38-2.95,0-4.32,4.1-4.1,8.19-8.19,12.29-12.29,1.27-1.27,2.84-1.29,4.12-.04.54.53,1.06,1.08,1.61,1.61,1.61,1.53,3.37,1.46,4.87-.19,1.18-1.29,1.8-2.86,2.3-4.49.2-.64.32-1.3.47-1.94.06-.24.09-.5.26-.7,2.72-3.31,5.84-6.1,9.87-7.71.99-.4,2.02-.66,3.11-.66,2.29,0,3.51,1.22,3.49,4-.05,1.3-.66,2.91-1.49,4.45Z"/>
</svg>