<?xml version="1.0" encoding="UTF-8"?>
<svg id="Circle" xmlns="http://www.w3.org/2000/svg" viewBox="0 0 72 72">
  <defs>
    <style>
      .cls-1 {
        fill: #231f20;
      }
    </style>
  </defs>
  <path class="cls-1" d="m36,0C16.12,0,0,16.12,0,36s16.12,36,36,36,36-16.12,36-36S55.88,0,36,0Zm-13.89,46.98c-.64.52-1.59.79-2.84.79-1.1,0-2.14-.27-3.11-.8-.97-.53-1.76-1.3-2.37-2.3-.61-1-.91-2.2-.91-3.59,0-.68-.08-1.23-.23-1.64-.16-.41-.34-.75-.56-1.01-.22-.26-.45-.49-.68-.7-.23-.21-.42-.45-.58-.73-.16-.28-.23-.64-.23-1.1s.08-.83.23-1.1c.16-.28.34-.52.56-.73s.45-.45.67-.7.42-.59.58-1.01c.16-.41.23-.96.23-1.64,0-1.41.3-2.62.91-3.62.61-1,1.4-1.77,2.37-2.3.97-.53,2.01-.8,3.11-.8,1.25,0,2.19.26,2.82.77.63.51.95,1.14.95,1.87s-.23,1.28-.69,1.68c-.46.4-1.06.61-1.82.61-.62,0-1.17.23-1.64.67-.47.45-.7,1.13-.7,2.05,0,.86-.15,1.67-.45,2.41-.3.74-.7,1.35-1.2,1.83.5.48.9,1.12,1.2,1.93s.45,1.58.45,2.31c0,.9.23,1.57.7,2.02.47.45,1.01.67,1.64.67.79,0,1.41.2,1.86.61.45.4.67.96.67,1.65,0,.73-.32,1.36-.96,1.89Zm8.47-4.19c-.26.43-.61.78-1.05,1.05-.44.27-.92.4-1.43.4s-.99-.13-1.42-.4c-.43-.27-.78-.62-1.05-1.05-.27-.43-.4-.9-.4-1.42s.13-.99.4-1.43c.27-.44.62-.79,1.05-1.05.43-.26.9-.39,1.42-.39s.99.13,1.43.39c.44.26.79.61,1.05,1.05.26.44.39.92.39,1.43s-.13.99-.39,1.42Zm7.91,0c-.26.43-.61.78-1.05,1.05-.44.27-.92.4-1.43.4s-.99-.13-1.42-.4c-.43-.27-.78-.62-1.05-1.05-.27-.43-.4-.9-.4-1.42s.13-.99.4-1.43c.27-.44.62-.79,1.05-1.05.43-.26.9-.39,1.42-.39s.99.13,1.43.39c.44.26.79.61,1.05,1.05.26.44.39.92.39,1.43s-.13.99-.39,1.42Zm7.9,0c-.26.43-.61.78-1.05,1.05-.44.27-.92.4-1.43.4s-.99-.13-1.42-.4c-.43-.27-.78-.62-1.05-1.05-.27-.43-.4-.9-.4-1.42s.13-.99.4-1.43c.27-.44.62-.79,1.05-1.05.43-.26.9-.39,1.42-.39s.99.13,1.43.39c.44.26.79.61,1.05,1.05.26.44.39.92.39,1.43s-.13.99-.39,1.42Zm14.79-5.8c-.16.28-.34.52-.56.73-.22.21-.45.45-.67.7-.23.26-.42.59-.58,1.01-.16.41-.23.96-.23,1.64,0,1.4-.3,2.59-.91,3.59-.61,1-1.4,1.77-2.37,2.3-.97.53-2.01.8-3.11.8-1.23,0-2.17-.26-2.82-.79-.65-.52-.98-1.15-.98-1.89s.22-1.25.68-1.65c.45-.4,1.07-.61,1.86-.61.62,0,1.17-.22,1.64-.67.47-.45.7-1.12.7-2.02,0-.73.15-1.51.45-2.31s.7-1.45,1.2-1.93c-.5-.48-.9-1.09-1.2-1.83-.3-.74-.45-1.55-.45-2.41,0-.92-.23-1.6-.7-2.05-.47-.45-1.01-.67-1.64-.67-.75,0-1.36-.2-1.82-.61-.46-.4-.69-.96-.69-1.68s.32-1.36.96-1.87c.64-.51,1.58-.77,2.81-.77,1.1,0,2.14.27,3.11.8s1.76,1.3,2.37,2.3c.61,1,.91,2.21.91,3.62,0,.68.08,1.23.23,1.64.16.41.35.75.58,1.01s.45.49.67.7.41.45.56.73c.16.28.23.64.23,1.1s-.08.83-.23,1.1Z"/>
</svg>